<?xml version="1.0" encoding="UTF-8" standalone="no"?>
<svg
   width="1200"
   zoomAndPan="magnify"
   viewBox="0 0 900 809.99999"
   height="1080"
   preserveAspectRatio="xMidYMid"
   version="1.0"
   id="svg3812"
   sodipodi:docname="blood-pressure-checking.svg"
   inkscape:version="1.2.1 (9c6d41e410, 2022-07-14)"
   xmlns:inkscape="http://www.inkscape.org/namespaces/inkscape"
   xmlns:sodipodi="http://sodipodi.sourceforge.net/DTD/sodipodi-0.dtd"
   xmlns="http://www.w3.org/2000/svg"
   xmlns:svg="http://www.w3.org/2000/svg">
  <sodipodi:namedview
     id="namedview3814"
     pagecolor="#ffffff"
     bordercolor="#000000"
     borderopacity="0.25"
     inkscape:showpageshadow="2"
     inkscape:pageopacity="0.0"
     inkscape:pagecheckerboard="0"
     inkscape:deskcolor="#d1d1d1"
     showgrid="false"
     inkscape:zoom="0.22189158"
     inkscape:cx="509.25772"
     inkscape:cy="425.88367"
     inkscape:window-width="1920"
     inkscape:window-height="991"
     inkscape:window-x="-9"
     inkscape:window-y="-9"
     inkscape:window-maximized="1"
     inkscape:current-layer="svg3812" />
  <defs
     id="defs3802">
    <clipPath
       id="20a809d898">
      <path
         d="M 0,194 H 840 V 780 H 0 Z m 0,0"
         clip-rule="nonzero"
         id="path3799" />
    </clipPath>
  </defs>
  <path
     fill="#000000"
     d="M 132.32812,570.89062 H 1.4375 V 769.29297 H 197.82812 V 570.89062 Z m 0,0"
     fill-opacity="1"
     fill-rule="nonzero"
     id="path3804" />
  <g
     clip-path="url(#20a809d898)"
     id="g3808">
    <path
       fill="#000000"
       d="m 625.46094,384.86328 c 0.44531,-1.26953 0.88672,-2.54297 1.33203,-3.79687 4.80469,-13.66797 9.5039,-26.00391 14.98047,-34.85157 3.8164,-6.1289 7.79297,-10.37109 12.29687,-12.73828 v 2.19141 c 0,17.26953 14,31.27344 31.27344,31.27344 h 65.14453 c 17.27344,0 31.27344,-14.00391 31.27344,-31.27344 v -72.97656 c 0,-17.27344 -14,-31.27735 -31.27344,-31.27735 h -65.14453 c -17.27344,0 -31.27344,14.00391 -31.27344,31.27735 v 62.27343 c -11.15625,3.89453 -18.54297,14.73828 -24.64453,27.89453 -4.35937,9.45704 -8.23437,20.49219 -12.24219,32.00391 H 436.20703 c -4.4375,-9.16016 -9.76172,-18.01172 -16.66406,-25.90625 3.6289,-1.50781 6.78906,-4.19531 8.84765,-7.88672 l 1.17579,-2.10547 c 30.33984,8.46485 66.41406,13.7461 109.55468,13.7461 0.14844,0 0.29297,0 0.44532,0 17.26953,0 31.27343,-14.00391 31.27343,-31.27735 0,-17.27734 -14.0039,-31.28125 -31.27343,-31.28125 -33.29297,-0.13281 -60.40625,-3.44922 -82.97266,-8.75 -1.00781,-4.98828 -4.08203,-9.53515 -8.875,-12.19922 l -77.34766,-43.01953 c -2.76953,-1.54297 -5.79687,-2.28125 -8.7539,-2.28125 -3.16016,-0.004 -6.26953,0.83203 -9.00782,2.40625 -6.96093,-6.125 -13.54296,-12.1914 -20.34375,-18 -6.61328,-5.57031 -13.51562,-11.03515 -22.11328,-15.6875 -5.99218,-3.25781 -13.16406,-6.01953 -21.02734,-7.36718 -2.55859,-0.70313 -5.23828,-1.10938 -8.01953,-1.10938 H 130.08984 c -4.375,0 -8.52734,0.94922 -12.27734,2.62109 -4.91016,1.08985 -11.62109,3.14454 -19.464844,7.10938 -20.070312,9.97656 -45.921875,32.55469 -65.058594,75.76953 -19.3125,43.27344 -33.074218,106.86719 -33.109374,203.21484 0,7.39063 0.078124,15.01563 0.257812,22.88282 0.390625,17.01953 14.316406,30.55078 31.261719,30.55468 0.242187,0 0.484375,-0.004 0.730469,-0.0117 17.261718,-0.40235 30.933593,-14.72657 30.539062,-31.99219 -0.179688,-7.32813 -0.25,-14.46485 -0.246094,-21.4336 -0.07031,-110.3164 19.667969,-167.64453 37.148438,-195.77343 v 213.43359 c 0,26.99219 21.878906,48.87891 48.867186,48.87891 v -0.008 h 73.70313 v 182.69922 c 0,26.98828 21.875,48.86719 48.86328,48.86719 26.98828,0 48.85937,-21.87891 48.85937,-48.86719 V 500.51953 c 0,-12.86328 -5.21484,-25.45703 -14.30469,-34.55078 -9.10156,-9.10156 -21.6914,-14.31641 -34.55468,-14.31641 h -78.50391 l 0.14453,-8.60547 h 78.36719 c 15.11719,0 29.92969,6.14454 40.625,16.84766 10.69922,10.69141 16.83594,25.49609 16.83594,40.62891 v 48.87109 h 16.80859 v 182.69922 c 0,26.98828 21.875,48.86719 48.85938,48.86719 26.98828,0 48.86328,-21.87891 48.86328,-48.86719 V 500.52344 c 0,-12.86328 -5.21485,-25.45703 -14.30469,-34.55078 -9.10156,-9.10157 -21.69141,-14.31641 -34.55859,-14.31641 h -83.125 V 283.29687 c 2.60546,2.29297 5.35937,4.67188 8.26562,7.11719 l -0.0625,0.10938 c -1.53906,2.75781 -2.26953,5.78515 -2.26953,8.74218 -0.008,6.33985 3.34375,12.48438 9.26953,15.78516 l 77.35156,43.01953 c 1.92188,1.07031 3.98047,1.72656 6.05078,2.04297 7.26954,7.23828 12.83204,15.65625 17.50782,24.75 h -70.92578 v 32.57813 h 84.80859 c 0.30469,0.78515 0.60937,1.57031 0.91797,2.35937 6.57812,16.73828 13.58594,33.26172 25.90234,46.08594 12.30469,12.85937 29.98047,21.53515 56.28516,22.57422 1.28906,0.0469 2.55078,0.0781 3.79687,0.0781 0.14453,0 0.28516,0 0.42578,0 25.48438,0.0625 44.22266,-10.04687 57.89844,-24.99609 11.85938,-12.9375 20.21094,-29.3086 27.01563,-46.10156 h 226.35156 v -32.57813 z m 63.95312,-30.94922 c -5.9375,0 -10.75,-4.8125 -10.75,-10.7539 0,-5.9375 4.8125,-10.75 10.75,-10.75 5.9375,0 10.7461,4.8125 10.7461,10.75 0,5.9414 -4.8086,10.7539 -10.7461,10.7539 z m 31.26953,0 c -5.93359,0 -10.75,-4.8125 -10.75,-10.7539 0,-5.9375 4.81641,-10.75 10.75,-10.75 5.9375,0 10.75,4.8125 10.75,10.75 0,5.9414 -4.8125,10.7539 -10.75,10.7539 z m -48.69922,-92.20312 h 91.86329 v 60.60156 h -91.86329 z m -344.94921,33.01172 26.33593,-47.3711 c 1.71875,-3.09765 4.92578,-4.83984 8.24219,-4.85156 1.54688,0 3.10156,0.375 4.57813,1.19922 l 77.35156,43.01953 c 3.10547,1.71875 4.84375,4.92578 4.84375,8.25781 0,1.54688 -0.375,3.10547 -1.19922,4.58985 l -26.30859,47.32812 c -1.71875,3.10547 -4.9375,4.84375 -8.25782,4.85156 -1.55078,-0.008 -3.11328,-0.38281 -4.57031,-1.19531 l -77.35156,-43.01172 c -3.10156,-1.73047 -4.85156,-4.94531 -4.85156,-8.26953 0,-1.5625 0.3789,-3.10547 1.1875,-4.54687 z m 270.01953,139.89062 c -14.16797,26.32422 -33.44922,46.00391 -68.41407,46.10938 -1.27734,0 -2.58203,-0.0274 -3.90625,-0.0781 -24.82421,-1.07422 -39.96484,-8.8125 -50.96875,-20.17578 -10.90234,-11.25391 -17.58984,-26.62891 -24.05078,-43.02734 h 155.34375 c -2.46875,5.88281 -5.07031,11.67578 -8.0039,17.17187 z m 0,0"
       fill-opacity="1"
       fill-rule="nonzero"
       id="path3806" />
  </g>
  <path
     fill="#000000"
     d="m 290.57812,87.484375 c 0,1.4375 -0.0351,2.878906 -0.10546,4.316406 -0.0703,1.4375 -0.17579,2.871094 -0.31641,4.304688 -0.14063,1.433593 -0.31641,2.859375 -0.53125,4.285161 -0.21094,1.42187 -0.45703,2.83984 -0.73438,4.2539 -0.28125,1.41016 -0.59765,2.81641 -0.94921,4.21094 -0.34766,1.39844 -0.73047,2.78516 -1.14844,4.16406 -0.41797,1.375 -0.8711,2.74219 -1.35547,4.09766 -0.48438,1.35547 -1.00391,2.69922 -1.55469,4.02734 -0.55078,1.33203 -1.13281,2.64453 -1.75,3.94922 -0.61328,1.30078 -1.26172,2.58594 -1.9375,3.85547 -0.67969,1.26953 -1.39062,2.51953 -2.1289,3.75781 -0.74219,1.23438 -1.51172,2.44922 -2.3086,3.64453 -0.80078,1.19922 -1.6289,2.375 -2.48828,3.53125 -0.85547,1.15625 -1.74219,2.28906 -2.65625,3.40235 -0.91016,1.11328 -1.85156,2.20312 -2.81641,3.26953 -0.96875,1.0664 -1.96093,2.10937 -2.97656,3.1289 -1.01953,1.01563 -2.0625,2.00782 -3.1289,2.97657 -1.06641,0.96484 -2.15625,1.90625 -3.26954,2.82031 -1.10937,0.91406 -2.24609,1.79687 -3.40234,2.65625 -1.15625,0.85547 -2.33203,1.68359 -3.52734,2.48437 -1.19922,0.80078 -2.41407,1.57032 -3.64844,2.3086 -1.23438,0.74218 -2.48828,1.45312 -3.75781,2.1289 -1.26953,0.67969 -2.55469,1.32813 -3.85547,1.94141 -1.30078,0.61719 -2.61719,1.19922 -3.94531,1.75 -1.32813,0.55078 -2.67188,1.07031 -4.02735,1.55469 -1.35547,0.48437 -2.72265,0.9375 -4.09765,1.35547 -1.37891,0.41796 -2.76563,0.80078 -4.16407,1.14843 -1.39453,0.35157 -2.79687,0.66797 -4.21093,0.94922 -1.41016,0.27735 -2.82813,0.52344 -4.25391,0.73438 -1.42188,0.21484 -2.85156,0.39062 -4.28125,0.53125 -1.43359,0.14062 -2.87109,0.24609 -4.30859,0.3164 -1.4375,0.0703 -2.875,0.10547 -4.3125,0.10547 -1.44141,0 -2.87891,-0.0352 -4.31641,-0.10547 -1.4375,-0.0703 -2.875,-0.17578 -4.30469,-0.3164 -1.43359,-0.14063 -2.86328,-0.31641 -4.28515,-0.53125 -1.42579,-0.21094 -2.83985,-0.45703 -4.25391,-0.73438 -1.41016,-0.28125 -2.81641,-0.59765 -4.21094,-0.94922 -1.39844,-0.34765 -2.78515,-0.73047 -4.16015,-1.14843 -1.37891,-0.41797 -2.7461,-0.8711 -4.10157,-1.35547 -1.35547,-0.48438 -2.69531,-1.00391 -4.02734,-1.55469 -1.32813,-0.55078 -2.64453,-1.13281 -3.94531,-1.75 -1.30078,-0.61328 -2.58594,-1.26172 -3.85547,-1.94141 -1.26953,-0.67578 -2.52344,-1.38672 -3.75781,-2.1289 -1.23438,-0.73828 -2.44922,-1.50782 -3.64454,-2.3086 -1.19921,-0.80078 -2.375,-1.6289 -3.53125,-2.48437 -1.15625,-0.85938 -2.28906,-1.74219 -3.40234,-2.65625 -1.11328,-0.91406 -2.20312,-1.85547 -3.26953,-2.82031 -1.06641,-0.96875 -2.10938,-1.96094 -3.125,-2.97657 -1.01953,-1.01953 -2.01172,-2.0625 -2.97656,-3.1289 -0.96875,-1.06641 -1.90625,-2.15625 -2.82032,-3.26953 -0.91406,-1.11329 -1.79687,-2.2461 -2.65625,-3.40235 -0.85546,-1.15625 -1.6875,-2.33203 -2.48437,-3.53125 -0.80078,-1.19531 -1.57031,-2.41015 -2.3125,-3.64453 -0.73828,-1.23828 -1.44922,-2.48828 -2.125,-3.75781 -0.67969,-1.26953 -1.32812,-2.55469 -1.94141,-3.85547 -0.61718,-1.30469 -1.19921,-2.61719 -1.75,-3.94922 -0.55078,-1.32812 -1.07031,-2.67187 -1.55468,-4.02734 -0.48438,-1.35547 -0.9336,-2.72266 -1.35157,-4.09766 -0.41796,-1.3789 -0.80468,-2.76562 -1.15234,-4.16406 -0.35156,-1.39453 -0.66406,-2.80078 -0.94531,-4.21094 -0.28125,-1.41406 -0.52735,-2.83203 -0.73828,-4.2539 -0.21094,-1.425786 -0.38672,-2.851568 -0.52735,-4.285161 -0.14453,-1.433594 -0.25,-2.867188 -0.32031,-4.304688 -0.0703,-1.4375 -0.10547,-2.878906 -0.10547,-4.316406 0,-1.441406 0.0352,-2.878906 0.10547,-4.316406 0.0703,-1.4375 0.17578,-2.875 0.32031,-4.304688 0.14063,-1.433593 0.31641,-2.863281 0.52735,-4.285156 0.21093,-1.425781 0.45703,-2.84375 0.73828,-4.253906 0.28125,-1.414063 0.59375,-2.816407 0.94531,-4.214844 0.34766,-1.394531 0.73438,-2.78125 1.15234,-4.160156 0.41797,-1.378907 0.86719,-2.742188 1.35157,-4.097657 0.48437,-1.355468 1.0039,-2.699218 1.55468,-4.03125 0.55079,-1.328124 1.13282,-2.644531 1.75,-3.945312 0.61329,-1.300781 1.26172,-2.585938 1.94141,-3.855469 0.67578,-1.269531 1.38672,-2.523437 2.125,-3.757812 0.74219,-1.234375 1.51172,-2.449219 2.3125,-3.648438 0.79687,-1.195312 1.62891,-2.371093 2.48437,-3.527343 0.85938,-1.15625 1.74219,-2.292969 2.65625,-3.40625 0.91407,-1.113282 1.85157,-2.203126 2.82032,-3.269532 0.96484,-1.066406 1.95703,-2.109375 2.97656,-3.125 1.01562,-1.019531 2.05859,-2.011718 3.125,-2.976562 1.06641,-0.96875 2.15625,-1.90625 3.26953,-2.820313 1.11328,-0.914062 2.24609,-1.800781 3.40234,-2.65625 1.15625,-0.859375 2.33204,-1.6875 3.53125,-2.488281 1.19532,-0.796875 2.41016,-1.570312 3.64454,-2.308594 1.23437,-0.738281 2.48828,-1.449218 3.75781,-2.128906 1.26953,-0.675781 2.55469,-1.324219 3.85547,-1.941406 1.30078,-0.613282 2.61718,-1.199219 3.94531,-1.75 1.33203,-0.550782 2.67187,-1.066406 4.02734,-1.550782 1.35547,-0.488281 2.72266,-0.9375 4.10157,-1.355468 1.375,-0.417969 2.76171,-0.800782 4.16015,-1.152344 1.39453,-0.347656 2.80078,-0.664062 4.21094,-0.945312 1.41406,-0.28125 2.82812,-0.527344 4.25391,-0.738282 1.42187,-0.210937 2.85156,-0.3867185 4.28515,-0.5273435 1.42969,-0.1406245 2.86719,-0.2460935 4.30469,-0.3203125 1.4375,-0.070312 2.875,-0.105469 4.31641,-0.105469 1.4375,0 2.875,0.035157 4.3125,0.105469 1.4375,0.074219 2.875,0.179688 4.30859,0.3203125 1.42969,0.140625 2.85937,0.3164065 4.28125,0.5273435 1.42578,0.210938 2.84375,0.457032 4.25391,0.738282 1.41406,0.28125 2.8164,0.597656 4.21093,0.945312 1.39844,0.351562 2.78516,0.734375 4.16407,1.152344 1.375,0.417968 2.74218,0.867187 4.09765,1.355468 1.35547,0.484376 2.69922,1 4.02735,1.550782 1.32812,0.550781 2.64453,1.136718 3.94531,1.75 1.30078,0.617187 2.58594,1.265625 3.85547,1.941406 1.26953,0.679688 2.52343,1.390625 3.75781,2.128906 1.23437,0.738282 2.44922,1.511719 3.64844,2.308594 1.19531,0.800781 2.37109,1.628906 3.52734,2.488281 1.15625,0.855469 2.29297,1.742188 3.40234,2.65625 1.11329,0.914063 2.20313,1.851563 3.26954,2.820313 1.0664,0.964844 2.10937,1.957031 3.1289,2.976562 1.01563,1.015625 2.00781,2.058594 2.97656,3.125 0.96485,1.066406 1.90625,2.15625 2.81641,3.269532 0.91406,1.113281 1.80078,2.25 2.65625,3.40625 0.85938,1.15625 1.6875,2.332031 2.48828,3.527343 0.79688,1.199219 1.56641,2.414063 2.3086,3.648438 0.73828,1.234375 1.44921,2.488281 2.1289,3.757812 0.67578,1.269531 1.32422,2.554688 1.9375,3.855469 0.61719,1.300781 1.19922,2.617188 1.75,3.945312 0.55078,1.332032 1.07031,2.675782 1.55469,4.03125 0.48437,1.355469 0.9375,2.71875 1.35547,4.097657 0.41797,1.378906 0.80078,2.765625 1.14844,4.160156 0.35156,1.398437 0.66796,2.800781 0.94921,4.214844 0.27735,1.410156 0.52344,2.828125 0.73438,4.253906 0.21484,1.421875 0.39062,2.851563 0.53125,4.285156 0.14062,1.429688 0.24609,2.867188 0.31641,4.304688 0.0703,1.4375 0.10546,2.875 0.10546,4.316406 z m 0,0"
     fill-opacity="1"
     fill-rule="nonzero"
     id="path3810" />
</svg>
