<?xml version="1.0" encoding="UTF-8" standalone="no"?>
<svg
   width="1700"
   zoomAndPan="magnify"
   viewBox="0 0 1275 809.99999"
   height="1080"
   preserveAspectRatio="xMidYMid"
   version="1.0"
   id="svg25"
   sodipodi:docname="body-temp.svg"
   inkscape:version="1.2.1 (9c6d41e410, 2022-07-14)"
   xmlns:inkscape="http://www.inkscape.org/namespaces/inkscape"
   xmlns:sodipodi="http://sodipodi.sourceforge.net/DTD/sodipodi-0.dtd"
   xmlns="http://www.w3.org/2000/svg"
   xmlns:svg="http://www.w3.org/2000/svg">
  <sodipodi:namedview
     id="namedview27"
     pagecolor="#ffffff"
     bordercolor="#000000"
     borderopacity="0.25"
     inkscape:showpageshadow="2"
     inkscape:pageopacity="0.0"
     inkscape:pagecheckerboard="0"
     inkscape:deskcolor="#d1d1d1"
     showgrid="false"
     inkscape:zoom="0.44378316"
     inkscape:cx="1018.5154"
     inkscape:cy="359.40976"
     inkscape:window-width="1920"
     inkscape:window-height="991"
     inkscape:window-x="-9"
     inkscape:window-y="-9"
     inkscape:window-maximized="1"
     inkscape:current-layer="svg25" />
  <defs
     id="defs5">
    <clipPath
       id="65c6997d3c">
      <path
         d="m 708,3 h 543 V 779.17187 H 708 Z m 0,0"
         clip-rule="nonzero"
         id="path2" />
    </clipPath>
  </defs>
  <g
     clip-path="url(#65c6997d3c)"
     id="g11">
    <path
       fill="#363635"
       d="m 1128.0039,492.77734 c 0.082,-0.0508 0.1211,-0.13281 0.1992,-0.1875 0.8203,-0.51562 1.5547,-1.13672 2.2032,-1.85937 3.6132,-4.14844 8.2109,-9.07422 13.5234,-14.76563 14.9141,-15.98047 35.3359,-37.87109 55.9609,-65.7539 33.2617,-44.97266 60.0664,-127.92578 46.9336,-199.45703 -7.7969,-42.45704 -29.0508,-76.47657 -61.5625,-98.64063 C 1152.3359,2.964844 1022.0547,0.109375 967.10937,4.058594 863.57812,11.453125 800.76562,43.34375 792.21094,71.046875 c -0.69532,2.265625 -2.17578,7.359375 11.77734,33.765625 -48.67578,58.78516 -49.14453,101.63281 -49.50781,146.88672 -0.10156,13.2539 -0.28516,26.94531 -1.66406,41.35937 -0.67188,0 -1.36329,0 -2.03125,0 -4.78125,0.0195 -9.27344,2.26172 -13.33204,6.65625 -15.9414,17.27735 -31.57421,80.625 -28.82812,116.86328 6.35547,84.01954 77.29687,135.53125 140.51953,147.84375 0.90234,0.20313 1.82031,0.3086 2.74609,0.32032 2.94922,0 7.53907,-1.21875 15.33204,-7.22266 3.14843,0.14453 6.33984,0.13672 9.6914,0.0156 11.1875,-0.39454 21.76172,-0.76172 31.31641,7.95703 14.82812,13.53125 28.51172,52.77343 32.50781,92.48437 -2.58203,3.13281 -5.17187,6.26172 -7.73437,9.33985 -25.1211,30.14843 -48.84766,58.63281 -59.35938,98.46093 -0.10156,0.39063 -0.18359,0.78516 -0.23828,1.1836 -0.0586,0.39843 -0.0937,0.80078 -0.10547,1.20312 -0.0117,0.40235 0,0.80469 0.0352,1.20703 0.0312,0.39844 0.0898,0.79688 0.16797,1.19141 0.082,0.39844 0.18359,0.78516 0.30859,1.16797 0.125,0.38281 0.26953,0.75781 0.4375,1.125 0.16797,0.36719 0.35547,0.72265 0.5625,1.07031 0.20703,0.34375 0.43359,0.67578 0.67969,0.99609 0.24609,0.31641 0.51172,0.6211 0.79297,0.91016 0.27734,0.28906 0.57421,0.5625 0.88671,0.81641 0.3125,0.2539 0.63672,0.49218 0.97657,0.71093 0.33984,0.21485 0.6875,0.41407 1.05078,0.59375 0.36328,0.17579 0.73047,0.33204 1.11328,0.46875 0.37891,0.13282 0.76562,0.2461 1.15625,0.33985 0.39062,0.0898 0.78906,0.16015 1.1875,0.20312 0.40234,0.0469 0.80469,0.0703 1.20703,0.0703 l 298.77728,-0.21094 c 0.1446,0 0.293,0 0.4375,-0.008 0.6289,-0.0937 1.2461,-0.2461 1.8477,-0.45704 0.6875,-0.0977 1.3555,-0.26562 2.0117,-0.49609 0.5938,-0.32031 1.1523,-0.69922 1.6758,-1.12891 1.2617,-0.63671 2.1797,-1.59765 2.7578,-2.89062 0.3984,-0.52734 0.7422,-1.08984 1.0352,-1.6875 0.2109,-0.69141 0.3554,-1.39453 0.4257,-2.11328 0.1758,-0.58594 0.293,-1.1836 0.3594,-1.78906 0,-0.0781 -0.043,-0.14063 -0.043,-0.21875 0,-0.0742 0.039,-0.14454 0.035,-0.22266 -3.2344,-76.35156 -27.5586,-130.19141 -63.1445,-187.24609 -2.625,-9.66016 -6.4414,-18.14063 -10.1836,-26.3086 -4.0742,-8.88281 -7.918,-17.27734 -8.9844,-25.32812 -0.2305,-1.75 -0.332,-3.50782 -0.3086,-5.26953 0.023,-1.76563 0.1719,-3.51954 0.4453,-5.26563 0.2774,-1.74219 0.6758,-3.45703 1.1953,-5.14062 0.5196,-1.6875 1.1563,-3.32813 1.9141,-4.92188 0.7539,-1.59766 1.6211,-3.12891 2.5976,-4.59766 0.9727,-1.47265 2.0508,-2.86718 3.2266,-4.18359 1.1758,-1.31641 2.4375,-2.53906 3.7891,-3.67578 1.3515,-1.13281 2.7773,-2.16797 4.2734,-3.09766 z M 968.61328,25.132812 c 62.59372,-4.46875 171.51172,2.097657 197.40232,96.449218 0.3438,1.25781 0.9024,2.41016 1.6719,3.46094 0.7734,1.05078 1.707,1.92969 2.8047,2.63281 29.7851,19.11328 48.4805,48.35156 55.5586,86.90234 12.0547,65.61329 -12.582,141.76563 -43.1406,183.07032 -19.9063,26.91797 -39.8555,48.30078 -54.418,63.91015 -1.6484,1.76172 -3.2266,3.45313 -4.7266,5.07032 -8.4804,-14.45704 -22.375,-43.44141 -27.6484,-85.02344 -0.1641,-0.80078 -0.4219,-1.57031 -0.7774,-2.30469 3.3672,-10.95312 5.3282,-24.07031 4.7657,-39.74609 -0.3477,-9.77735 -3.2617,-33.92188 -22.6719,-46.81641 -9.957,-6.61328 -25.0156,-8.13672 -38.3164,-4.50391 -0.1211,-0.0117 -0.2149,-0.0859 -0.3359,-0.0937 -16.7227,-1.30468 -33.1915,-0.41015 -50.0313,1.64454 -0.39844,-3.76172 -0.71484,-7.39063 -0.97266,-10.85938 -2.40234,-32.50391 -6.51562,-49.5 -73.13672,-80.41406 -41.61328,-19.32031 -74.76953,-72.59375 -87.09765,-94.60156 -7.92969,-14.144535 -12.4336,-24.398441 -14.11719,-28.859379 7.78125,-12.804687 52.32031,-42.574219 155.1875,-49.917969 z m 51.04692,384.046878 c -0.062,-0.69141 -0.1954,-1.3711 -0.3907,-2.03516 -0.1992,-0.66406 -0.457,-1.30469 -0.7812,-1.91797 -0.3242,-0.61328 -0.7031,-1.1914 -1.1406,-1.73047 -0.4375,-0.53906 -0.9219,-1.02734 -1.4571,-1.47265 -0.5312,-0.44141 -1.1054,-0.82813 -1.7148,-1.16016 -0.6094,-0.33203 -1.2461,-0.59766 -1.9063,-0.80469 -0.664,-0.20312 -1.3398,-0.34375 -2.0312,-0.41406 -0.6875,-0.0742 -1.3789,-0.0781 -2.0703,-0.0117 -0.6914,0.0625 -1.3672,0.19141 -2.0313,0.39063 -0.668,0.19531 -1.3047,0.45703 -1.918,0.78125 -0.6132,0.32422 -1.1914,0.70312 -1.7304,1.14062 -0.5391,0.4375 -1.0274,0.92188 -1.4727,1.45703 -0.4414,0.53125 -0.8281,1.10547 -1.16013,1.71485 -0.33203,0.60937 -0.59766,1.24609 -0.80469,1.91015 -0.20312,0.66016 -0.34375,1.33594 -0.41406,2.02735 -0.0742,0.6914 -0.0781,1.3789 -0.0117,2.07031 0.0352,0.41406 0.14844,0.80859 0.20703,1.21875 -6.41406,2.02344 -15.51953,5.11328 -28.75391,9.60937 -16.92187,5.75391 -35.80859,12.16797 -45.01171,15.01954 -15.79297,-7.4336 -34.28125,-21.07813 -45.20313,-46.05079 -8.71094,-19.90625 -2.89453,-44.59765 2.60156,-60.15625 21.9336,-4.48437 44.00782,-8.85156 65.74219,-12.95703 22.47656,-4.24609 43.37109,-7.82422 63.70315,-8.82422 -3.4454,6.17969 -5.5,12.79297 -6.1602,19.83985 -0.07,0.6914 -0.07,1.3789 -0.01,2.07031 0.066,0.69141 0.1992,1.37109 0.3984,2.03516 0.1992,0.66406 0.461,1.30078 0.7852,1.91406 0.3242,0.61328 0.707,1.1875 1.1445,1.72656 0.4375,0.53906 0.9258,1.02735 1.4609,1.46875 0.5352,0.44141 1.1055,0.82813 1.7188,1.15625 0.6094,0.32813 1.2461,0.59375 1.9102,0.79688 0.664,0.20312 1.3398,0.33984 2.0312,0.41015 0.6875,0.0625 1.375,0.0586 2.0625,-0.0156 0.6875,-0.0703 1.3594,-0.20703 2.0195,-0.41016 0.6641,-0.19922 1.2969,-0.46484 1.9063,-0.78906 0.6094,-0.32813 1.1836,-0.70703 1.7187,-1.14453 0.5352,-0.4375 1.0235,-0.92188 1.4649,-1.45313 0.4414,-0.53125 0.8281,-1.10156 1.1562,-1.70703 0.3321,-0.60937 0.6016,-1.24219 0.8086,-1.90234 0.2071,-0.65625 0.3516,-1.33203 0.4297,-2.01563 1.0195,-10.0664 5.5508,-17.0664 13.4531,-20.80078 9.6368,-4.55078 21.0235,-2.82422 25.5352,0.17578 11.5742,7.6875 13.0703,24.88672 13.25,29.97657 1.418,39.46093 -15.9492,58.05859 -26.4258,65.6289 -12.2344,8.85156 -23.75,9.56641 -28.164,7.92969 -3.0821,-1.14844 -4.6094,-3.18359 -4.7461,-4.69531 z m -204.54301,-284.625 c 18.16015,30.26953 50.02734,74.26562 90.6289,93.12109 58.32032,27.06641 59.09766,37.53125 60.96875,62.80859 0.27735,3.72266 0.64844,7.91407 1.125,12.32813 -7.70703,1.28125 -15.53515,2.71875 -23.55859,4.23437 -18.94141,3.58204 -38.15234,7.37891 -57.30078,11.25782 -0.1211,-0.22657 -0.1875,-0.5 -0.32813,-0.71485 -6.9375,-10.80859 -60.86718,-14.01953 -112.6289,-14.48437 1.28906,-14.53125 1.46875,-28.10547 1.57422,-41.24219 0.32812,-41.42578 0.62109,-77.55859 39.51953,-127.30859 z m 36.32812,418.78515 c -22.46094,-4.70703 -50.28515,-16.96093 -73.72265,-36.99218 l 58.57421,-28.12891 c 0.44532,-0.21875 0.86329,-0.47656 1.25782,-0.78125 0.39453,-0.30078 0.75781,-0.63672 1.08593,-1.00781 0.32813,-0.3711 0.61719,-0.77344 0.86719,-1.20313 0.25,-0.42578 0.45703,-0.875 0.61719,-1.34375 0.16406,-0.47265 0.27734,-0.95312 0.34766,-1.4414 0.0664,-0.49219 0.0859,-0.98829 0.0586,-1.48047 -0.0273,-0.4961 -0.10547,-0.98438 -0.23047,-1.46485 -0.12109,-0.48047 -0.29297,-0.94531 -0.50781,-1.39453 -0.21485,-0.44531 -0.46875,-0.86719 -0.76563,-1.26562 -0.29687,-0.39844 -0.63281,-0.76172 -1,-1.09375 -0.36718,-0.33203 -0.76562,-0.625 -1.1914,-0.87891 -0.42578,-0.25391 -0.875,-0.46484 -1.33985,-0.63281 -0.46875,-0.16797 -0.94922,-0.28516 -1.4375,-0.35938 -0.49218,-0.0742 -0.98437,-0.0976 -1.48047,-0.0742 -0.49609,0.0234 -0.98437,0.0937 -1.46484,0.21485 -0.48437,0.11719 -0.94922,0.28515 -1.39844,0.49219 l -63.84375,30.65234 c -19.26562,-20.33594 -33.67578,-46.94922 -36.1914,-80.17188 -0.3125,-4.55468 -0.3711,-9.11718 -0.16407,-13.67968 l 75.08204,-8.90625 c 0.49218,-0.0586 0.97656,-0.16797 1.44921,-0.32422 0.47266,-0.15625 0.92579,-0.35938 1.35547,-0.60156 0.4336,-0.2461 0.83985,-0.53125 1.21875,-0.85547 0.375,-0.32422 0.71875,-0.6836 1.02344,-1.07422 0.30859,-0.39453 0.57422,-0.8125 0.79688,-1.25391 0.22656,-0.44531 0.40625,-0.90625 0.53906,-1.38672 0.13672,-0.48047 0.22265,-0.96875 0.25781,-1.46484 0.0391,-0.49609 0.0312,-0.98828 -0.0273,-1.48438 -0.0586,-0.49218 -0.16797,-0.97656 -0.32032,-1.44921 -0.15234,-0.47657 -0.35156,-0.92969 -0.59375,-1.36329 -0.24609,-0.43359 -0.52734,-0.83984 -0.85156,-1.21875 -0.32031,-0.3789 -0.67578,-0.72265 -1.0664,-1.03125 -0.39063,-0.3125 -0.8086,-0.57812 -1.25,-0.80468 -0.44532,-0.22657 -0.90625,-0.41016 -1.38282,-0.54688 -0.48047,-0.13672 -0.96484,-0.22656 -1.46093,-0.26562 -0.4961,-0.0391 -0.99219,-0.0312 -1.48829,0.0234 l -71.97656,8.54297 c 3.95703,-31.49218 15.21094,-64.90234 21.94141,-71.66406 1.47656,-0.004 2.94531,-0.004 4.40625,0 54.98828,0 91.24609,3.08203 106.76562,5.71094 -7.35937,19.23047 -15.66797,51.50781 -3.42578,79.5 15.23047,34.80859 42.92578,51.6875 62.23047,59.55859 -28.11328,38.96485 -60.64062,78.94531 -71.29297,84.39453 z m 71.02344,6.55078 c -11.09766,-10.125 -22.95313,-12.84375 -33.47656,-13.4414 14.07812,-15.64063 33.14453,-39.73828 59.21875,-76.86328 0.85547,-1.23438 1.41797,-2.58594 1.6914,-4.0625 0.27344,-1.47657 0.23438,-2.94141 -0.125,-4.40235 8.28907,-2.77343 17.75782,-5.99218 27.10157,-9.16406 12.8164,-4.35547 28.25779,-9.60547 34.04299,-11.40625 1.9297,1.26953 3.9765,2.3125 6.1367,3.12891 3.9648,1.41797 8.0547,2.10156 12.2656,2.05468 11.3281,0 24.2656,-4.45703 35.6211,-12.66406 5.4531,-3.96484 10.3125,-8.55859 14.5742,-13.78125 7.9258,35.82031 20.9688,60.25 28.6211,72.35156 -1.6953,1.56641 -3.2929,3.22657 -4.7929,4.98047 -1.5,1.75782 -2.8907,3.59766 -4.168,5.51953 -1.2813,1.92188 -2.4414,3.91407 -3.4844,5.97266 -1.039,2.0625 -1.957,4.17578 -2.7461,6.34766 -0.789,2.16797 -1.4453,4.3789 -1.9687,6.6289 -0.5274,2.2461 -0.918,4.51953 -1.1719,6.8125 -0.2539,2.29688 -0.3672,4.59766 -0.3477,6.90625 0.02,2.3086 0.1797,4.60938 0.4766,6.89844 1.4844,11.20313 6.1758,21.45313 10.7227,31.36328 2.3906,5.21875 4.8437,10.55469 6.8437,16.07422 l -146.92578,66.55469 c -5.75781,-41.79297 -20.6875,-79.91016 -38.10937,-95.8086 z m 26.76562,130.94922 c 2.99219,-3.59375 6,-7.23047 9.02344,-10.90234 l 157.94529,-71.55469 c 30.6524,50.1836 50.6641,96.01953 55.211,159.32422 l -273.11332,0.19531 c 10.85938,-28.96093 30.39844,-52.41797 50.93359,-77.0625 z m 0,0"
       fill-opacity="1"
       fill-rule="nonzero"
       id="path9" />
  </g>
  <path
     fill="#363635"
     d="m 198.65234,255.65234 h 61.16407 c 0.5625,0 1.11718,-0.0508 1.66796,-0.15234 0.55079,-0.10156 1.08985,-0.25 1.61329,-0.44922 0.52343,-0.20312 1.02343,-0.44531 1.5039,-0.73828 0.47656,-0.29297 0.92578,-0.625 1.34375,-0.99609 0.41797,-0.375 0.79688,-0.78125 1.14063,-1.22657 0.34375,-0.4414 0.64453,-0.91406 0.90234,-1.41015 0.25781,-0.5 0.46484,-1.01563 0.62891,-1.55078 0.16406,-0.53907 0.27734,-1.08594 0.33984,-1.64063 l 7.44141,-65.89844 c 0.0703,-0.64453 0.0781,-1.28906 0.0117,-1.93359 -0.0625,-0.64453 -0.19141,-1.27344 -0.38672,-1.89063 -0.19922,-0.61718 -0.45703,-1.20703 -0.77735,-1.76953 -0.32031,-0.5625 -0.69922,-1.08593 -1.1289,-1.5664 -0.42969,-0.48438 -0.91016,-0.91797 -1.42969,-1.30078 -0.52344,-0.37891 -1.08203,-0.70313 -1.67188,-0.96875 -0.58984,-0.26563 -1.20312,-0.46485 -1.83593,-0.59766 -0.63282,-0.13672 -1.27344,-0.20313 -1.92188,-0.20313 h -61.16406 c -0.55859,0 -1.11328,0.0508 -1.66406,0.15235 -0.55078,0.10156 -1.08985,0.25 -1.61328,0.44922 -0.52344,0.20312 -1.02344,0.44922 -1.50391,0.73828 -0.47656,0.29297 -0.92578,0.625 -1.34375,0.99609 -0.41797,0.375 -0.80078,0.78516 -1.14063,1.22656 -0.34375,0.44141 -0.64453,0.91407 -0.90234,1.41016 -0.25781,0.5 -0.46875,1.01563 -0.62891,1.55078 -0.16406,0.53906 -0.27734,1.08594 -0.33984,1.64063 l -7.44141,65.89843 c -0.0742,0.64454 -0.0781,1.28907 -0.0156,1.9336 0.0625,0.64453 0.19531,1.27344 0.39062,1.89062 0.19532,0.61719 0.45313,1.20703 0.77735,1.76953 0.32031,0.5625 0.69531,1.08594 1.1289,1.57032 0.42969,0.48047 0.90625,0.91406 1.42969,1.29687 0.52344,0.38281 1.07813,0.70313 1.67188,0.96875 0.58984,0.26563 1.20312,0.46485 1.83593,0.60156 0.63282,0.13282 1.27344,0.19922 1.91797,0.19922 z m 6.69922,-75.17968 c 0.0195,-0.1875 0.10156,-0.34766 0.2461,-0.47266 0.14062,-0.12891 0.30859,-0.19141 0.49609,-0.19141 h 61.16406 c 0.10547,0 0.21094,0.0234 0.30469,0.0664 0.0977,0.043 0.18359,0.10547 0.25391,0.18359 0.0703,0.0781 0.12109,0.17188 0.15625,0.27344 0.0312,0.10156 0.043,0.20313 0.0312,0.30859 l -7.44141,65.89844 c -0.0234,0.1875 -0.10547,0.34766 -0.24609,0.47266 -0.14063,0.1289 -0.3086,0.1914 -0.5,0.1914 h -61.16407 c -0.10547,0 -0.20703,-0.0195 -0.30468,-0.0625 -0.0977,-0.0469 -0.17969,-0.10546 -0.25391,-0.1875 -0.0703,-0.0781 -0.12109,-0.16796 -0.15234,-0.26953 -0.0352,-0.10156 -0.043,-0.20703 -0.0312,-0.3125 z m 0,0"
     fill-opacity="1"
     fill-rule="nonzero"
     id="path13" />
  <path
     fill="#363635"
     d="m 242.46875,269.66797 h -34.94531 c -0.69532,-0.004 -1.38282,0.0625 -2.07032,0.1875 -0.68359,0.125 -1.34765,0.3125 -2,0.55859 -0.64843,0.25 -1.26953,0.55469 -1.86328,0.91406 -0.59765,0.36329 -1.15234,0.77735 -1.67187,1.23829 -0.51953,0.46484 -0.98828,0.97265 -1.41797,1.51953 -0.42578,0.55078 -0.79688,1.13672 -1.11719,1.7539 -0.3164,0.61719 -0.57812,1.25782 -0.78125,1.92578 -0.20312,0.66407 -0.33984,1.34375 -0.41797,2.03516 l -0.0859,0.72266 c -0.0469,0.42578 -0.0703,0.84765 -0.0742,1.27343 -0.004,0.42579 0.0156,0.85157 0.0586,1.27735 0.0391,0.42187 0.10156,0.84375 0.1875,1.26172 0.0859,0.41797 0.19531,0.82812 0.32422,1.23437 0.12891,0.40625 0.27734,0.80469 0.44922,1.19531 0.17187,0.39063 0.36328,0.76954 0.57422,1.14063 0.21093,0.36719 0.4414,0.72656 0.6914,1.07031 0.2461,0.34766 0.51172,0.67969 0.79688,0.9961 0.28515,0.32031 0.58203,0.62109 0.89844,0.90625 0.3164,0.28515 0.64453,0.55468 0.98828,0.80859 0.34375,0.25 0.69922,0.48437 1.07031,0.69531 0.36719,0.21485 0.74609,0.41016 1.13281,0.58203 0.39063,0.17578 0.78906,0.32813 1.19141,0.46094 0.40625,0.13281 0.8164,0.24219 1.23437,0.33203 0.41407,0.0899 0.83594,0.15625 1.25782,0.19922 0.42578,0.0469 0.84765,0.0703 1.27343,0.0703 h 32.60938 c 0.80078,0 1.59375,-0.0742 2.3789,-0.21875 0.78907,-0.14453 1.55469,-0.35937 2.30079,-0.64453 0.75,-0.28515 1.46484,-0.63672 2.14843,-1.05078 0.6836,-0.41797 1.32422,-0.89062 1.91797,-1.42578 0.59766,-0.53125 1.14063,-1.11719 1.63281,-1.75 0.48829,-0.63281 0.91797,-1.30469 1.28516,-2.01563 0.36719,-0.71093 0.66406,-1.44921 0.89844,-2.21484 0.23047,-0.76562 0.39453,-1.54687 0.48047,-2.33984 0.0937,-0.80078 0.0977,-1.59766 0.0195,-2.39844 -0.0781,-0.80078 -0.23828,-1.58203 -0.48438,-2.34766 -0.24218,-0.76562 -0.5625,-1.5 -0.96093,-2.19531 -0.39844,-0.69922 -0.86329,-1.34766 -1.39844,-1.94922 -0.53516,-0.59765 -1.12891,-1.13672 -1.77735,-1.60937 -0.64843,-0.47657 -1.33984,-0.875 -2.07421,-1.20313 -0.73438,-0.32812 -1.49219,-0.57812 -2.27735,-0.74609 -0.78515,-0.16797 -1.58203,-0.25 -2.38281,-0.25 z m 0,0"
     fill-opacity="1"
     fill-rule="nonzero"
     id="path15" />
  <path
     fill="#363635"
     d="m 628.91406,183.17187 -10.98828,12.83204 c 8.19922,7.03515 12.74609,16.30468 12.79688,26.11718 0.0469,9.6875 -4.30079,18.91407 -12.2461,26 l 11.24219,12.61719 c 11.625,-10.35547 17.97656,-24.09766 17.90234,-38.70703 -0.0781,-14.79297 -6.71875,-28.59375 -18.70703,-38.85938 z m 0,0"
     fill-opacity="1"
     fill-rule="nonzero"
     id="path17" />
  <path
     fill="#363635"
     d="m 656.37109,159.13672 -10.98828,12.83203 c 15.58985,13.37109 24.23828,31.10547 24.33594,49.94922 0.0977,18.84375 -8.34766,36.66015 -23.80859,50.19531 l 11.12109,12.71875 c 19.21484,-16.82031 29.71484,-39.19141 29.58594,-63.00781 -0.12891,-23.8125 -10.86719,-46.08203 -30.2461,-62.6875 z m 0,0"
     fill-opacity="1"
     fill-rule="nonzero"
     id="path19" />
  <path
     fill="#363635"
     d="m 683.82031,135.10156 -10.99219,12.83594 c 23.00391,19.70703 35.75,45.91016 35.90235,73.77344 0.15234,27.86328 -12.32813,54.1914 -35.11328,74.14453 l 11.12109,12.71484 c 26.53906,-23.22265 41.05469,-54.10156 40.88672,-86.94922 -0.16797,-32.84765 -15.01953,-63.5625 -41.80469,-86.51953 z m 0,0"
     fill-opacity="1"
     fill-rule="nonzero"
     id="path21" />
  <path
     fill="#363635"
     d="M 554.04297,121.53906 H 267.07812 c -0.78125,0.0195 -1.54687,0.14844 -2.29296,0.38672 -0.41797,-0.125 -0.84375,-0.1875 -1.27735,-0.19531 h -38.79297 c -25.75781,0 -49.10547,20.93359 -52.05078,46.67187 l -13.28125,117.61328 c -0.5625,4.65625 -0.40234,9.28516 0.48828,13.89063 0.88672,4.60547 2.45703,8.96484 4.70703,13.07812 0.29297,0.83985 0.70313,1.61719 1.23047,2.33594 l 1.14063,1.39844 c 1.62109,2.30469 3.46094,4.42578 5.51953,6.35547 6.89453,7.46094 14.49219,14.11719 22.79297,19.96875 -0.0625,3.41797 -0.20703,6.87109 -0.42578,10.36719 -13.77344,10.83984 -23.85547,19.07421 -28.44141,23.23828 -36.00781,32.65234 -60.48047,62.7539 -71.289061,111.8164 -0.558594,2.46485 -1.253907,4.89063 -2.085938,7.27344 -0.835937,2.38672 -1.804687,4.71875 -2.90625,6.99219 -1.101562,2.27344 -2.328125,4.48047 -3.683593,6.61328 -1.351563,2.13281 -2.824219,4.18359 -4.410157,6.14844 -1.589843,1.96484 -3.285156,3.83593 -5.085937,5.60547 -1.800782,1.77343 -3.699219,3.4375 -5.691406,4.98828 -1.992188,1.55468 -4.066407,2.99218 -6.226563,4.30859 -2.15625,1.31641 -4.378906,2.50391 -6.671875,3.56641 -5.957031,2.7539 -12.523438,5.32031 -20.132812,8.28906 -7.574219,2.96484 -16.144532,6.31641 -25.878907,10.55469 -9.875,4.30078 -12.332031,14.57812 0.363281,61.34765 6.070313,22.37891 14.816407,49.4961 23.382813,72.53516 13.699219,36.83203 18.800781,43.39453 26.308594,43.39453 0.722656,-0.008 1.441406,-0.0547 2.160156,-0.14844 3.554687,-0.42578 6.996094,-2.04687 33.445313,-15.79297 13.695312,-7.10937 30.734372,-15.96484 47.246092,-24 8.24609,-4.01562 20.94531,-8.70312 29.55859,-8.70312 12.38282,0.13281 24.72266,0.97266 37.01172,2.52734 2.54297,2.26563 5.29297,4.2461 8.25,5.94532 2.95313,1.69921 6.05078,3.08203 9.28907,4.14453 3.23828,1.0625 6.54687,1.78125 9.93359,2.16406 3.38672,0.37891 6.77734,0.41016 10.17187,0.0937 40.64063,-3.84766 72.02344,-11.29297 91.1875,-16.85547 1.83985,-0.53906 3.6211,-1.22266 5.34766,-2.05078 1.72656,-0.82813 3.375,-1.79297 4.94531,-2.88672 1.57422,-1.09375 3.04688,-2.30859 4.41797,-3.64453 1.375,-1.33203 2.63281,-2.76953 3.77735,-4.30859 1.14062,-1.53516 2.15234,-3.15625 3.03125,-4.85938 0.8789,-1.69922 1.61718,-3.46094 2.21093,-5.28125 0.59766,-1.82031 1.03907,-3.67969 1.33594,-5.57031 0.29297,-1.89453 0.43359,-3.79688 0.41797,-5.71485 l -0.0586,-7.83203 c 8.48046,-2 16.8125,-4.48828 25,-7.46875 7.7539,-2.875 11.80859,-6.26953 17.13281,-11.125 7.85547,-7.17187 11.95703,-17.09765 10.97265,-26.55859 -0.40234,-3.93359 -1.51171,-7.66016 -3.32421,-11.17578 7.69921,-3.57031 19.19921,-10.76563 23.86718,-23.22656 5.24219,-14.00391 2.33594,-27.60547 -7.50781,-36.33594 6.55078,-3.23047 10.65234,-6.84766 15.81641,-11.72656 9.09375,-8.58985 13.59375,-20.1875 12.04687,-31.02344 -0.95703,-6.65625 -4.27344,-16.05469 -14.48047,-24.03125 5.0625,-5.69922 11.25,-13.42969 14.84375,-20.72266 4.91797,-9.98047 3.59375,-22.71875 -3.375,-32.45703 -6.90625,-9.66406 -17.88672,-14.54297 -29.28906,-13.03125 -5.37891,0.78125 -10.45703,2.47266 -15.23828,5.0625 v -46.22266 c 31.70703,-10.63671 86.62891,-21.80468 147.48047,-29.97265 1.32031,-0.1836 2.63281,-0.42188 3.93359,-0.72266 1.30469,-0.30078 2.58985,-0.65625 3.85938,-1.07031 1.26953,-0.41406 2.51562,-0.88672 3.74218,-1.41016 1.22657,-0.52734 2.42969,-1.10937 3.60547,-1.74218 1.17578,-0.63282 2.32032,-1.32032 3.4336,-2.05469 1.11328,-0.73828 2.1914,-1.52344 3.23437,-2.35547 1.04688,-0.83203 2.05078,-1.71094 3.01563,-2.63281 0.96484,-0.92188 1.88672,-1.88672 2.76562,-2.89453 0.87891,-1.00391 1.71094,-2.04688 2.4961,-3.12891 0.78515,-1.07813 1.51953,-2.19141 2.20703,-3.33594 0.68359,-1.14844 1.32031,-2.32031 1.89843,-3.52344 0.58204,-1.20312 1.10547,-2.42968 1.57813,-3.67968 0.47266,-1.25 0.88672,-2.51953 1.24219,-3.80469 0.35937,-1.28906 0.65625,-2.58594 0.89843,-3.90234 0.23829,-1.3125 0.42188,-2.63282 0.54297,-3.96485 0.125,-1.32812 0.1875,-2.66406 0.19141,-3.99609 V 166.16016 c -0.004,-1.46094 -0.0742,-2.91797 -0.21875,-4.3711 -0.14453,-1.45312 -0.36328,-2.89844 -0.64844,-4.32812 -0.28515,-1.4336 -0.64062,-2.84766 -1.0664,-4.2461 -0.42579,-1.39843 -0.91797,-2.77343 -1.47657,-4.12109 -0.55859,-1.35156 -1.18359,-2.66797 -1.875,-3.95703 -0.6875,-1.28906 -1.4375,-2.53906 -2.25,-3.75391 -0.8125,-1.21484 -1.67968,-2.38672 -2.60937,-3.51562 -0.92578,-1.12891 -1.90625,-2.21094 -2.9375,-3.24219 -1.03516,-1.03516 -2.11328,-2.01563 -3.24219,-2.94141 -1.12891,-0.92578 -2.30078,-1.79687 -3.51562,-2.60937 -1.21485,-0.8086 -2.46485,-1.5625 -3.75391,-2.25 -1.28906,-0.6875 -2.60547,-1.3125 -3.95313,-1.875 -1.35156,-0.55859 -2.72265,-1.05078 -4.12109,-1.47656 -1.39844,-0.42578 -2.8125,-0.78125 -4.24609,-1.06641 -1.42969,-0.28516 -2.875,-0.5 -4.32813,-0.64453 -1.45312,-0.14453 -2.91015,-0.21875 -4.37109,-0.22266 z M 347.11328,645.32422 c 0.008,0.88281 -0.0547,1.76562 -0.19141,2.64062 -0.13281,0.875 -0.33984,1.73438 -0.61328,2.57422 -0.27343,0.84375 -0.61328,1.65625 -1.01953,2.44531 -0.40625,0.78516 -0.87109,1.53516 -1.39844,2.2461 -0.52734,0.71094 -1.10937,1.375 -1.74218,1.99219 -0.63672,0.61718 -1.31641,1.17968 -2.04297,1.6875 -0.72656,0.50781 -1.48828,0.95312 -2.28516,1.33593 -0.79687,0.38282 -1.62109,0.69922 -2.47265,0.94922 -18.37891,5.33594 -48.51563,12.47266 -87.69532,16.1875 -1.28125,0.11328 -2.5625,0.14453 -3.84765,0.0977 -1.28125,-0.0469 -2.5586,-0.17578 -3.82422,-0.37891 -1.26953,-0.20703 -2.51953,-0.48828 -3.75,-0.84765 -1.23438,-0.35938 -2.44141,-0.79297 -3.6211,-1.30079 -1.17578,-0.50781 -2.32031,-1.08984 -3.42968,-1.73828 -1.10547,-0.64843 -2.17188,-1.36328 -3.19141,-2.14843 -1.01562,-0.78125 -1.98437,-1.6211 -2.89844,-2.51954 -0.91797,-0.90234 -1.77343,-1.85546 -2.57031,-2.86328 -4.03125,-13.60547 -14.10547,-57.94922 -16.40625,-78.10156 -6.05469,-53.21875 31.15234,-126.33203 46.31641,-145.13672 12.09375,-15.0039 29.80078,-35.22265 46.91797,-54.77734 28.82812,-32.92969 41.74609,-47.96875 44.53515,-53.80078 6.60938,-13.83985 5.3711,-29.28907 -3.15234,-39.35157 -2.60156,-3.0039 -5.67578,-5.41015 -9.21485,-7.21875 l 12.21094,-108.17968 c 1.66016,-14.44141 -2.43359,-28.08985 -11.45703,-38.57032 h 193.28125 c 1.42578,0.52735 2.80078,1.16016 4.12891,1.89454 1.32812,0.73437 2.58984,1.5664 3.79297,2.49218 1.20312,0.92578 2.32812,1.9375 3.375,3.03516 1.05078,1.09766 2.01171,2.26562 2.88281,3.50781 0.87109,1.2461 1.64453,2.54688 2.32031,3.90235 0.67578,1.35937 1.24609,2.76171 1.71094,4.21093 0.46094,1.44532 0.8125,2.91407 1.05469,4.41407 0.24218,1.5 0.36718,3.00781 0.3789,4.52343 v 114.10547 c 0,3.91016 -0.004,14.29688 -14.1914,19.95703 -50.40235,7.84375 -108.45313,19.63282 -137.1211,32.1836 -28.08594,12.30078 -44.85937,40.27343 -44.85937,74.8164 0,19.44922 -0.0234,41.23438 -0.0508,63.63672 -2.60547,0.60547 -5.16797,1.19531 -7.55469,1.7461 -12.34766,2.82812 -18.41406,4.2539 -21.40235,5.61328 -10.625,4.84765 -18.4375,14.00781 -20.89453,24.49609 -0.55859,2.40625 -0.82422,4.84766 -0.78906,7.32031 0.0312,2.46875 0.35938,4.90235 0.98047,7.29297 0.62109,2.39063 1.51953,4.67578 2.69531,6.84766 1.17578,2.17578 2.59375,4.17578 4.25391,6.0039 -3.23828,0.58985 -6.17969,1.16407 -8.66016,1.73438 -16.19531,3.73437 -32.69531,15.64062 -33.05859,33.80859 -0.17969,8.83594 2.9375,24.53125 25.90625,30.36719 0.76172,0.16797 1.53515,0.27734 2.3164,0.32813 -2.26562,2.96484 -3.91015,6.24609 -4.93359,9.83593 -2.69531,10.34766 1.03125,21.75391 9.0625,27.7461 6.12891,4.57031 13.27344,5.44922 20.24609,5.44922 0.73438,0 1.46875,-0.0117 2.19532,-0.0234 9.97265,-0.27735 19.88281,-1.21875 29.73047,-2.82422 0.0117,2.23047 0.0273,4.35156 0.0469,6.35547 z M 224.71484,140.35937 h 38.79297 c 0.44531,-0.0508 0.88281,-0.13671 1.3125,-0.26562 0.73047,0.25781 1.48047,0.41016 2.25781,0.45703 h 7.2461 c 3.70703,1.48438 6.89453,3.71484 9.5664,6.6875 1.28125,1.46484 2.39063,3.05078 3.33204,4.75391 0.9414,1.70312 1.6914,3.48828 2.25,5.35156 0.55859,1.86328 0.91406,3.76562 1.0664,5.70703 0.15235,1.94141 0.0977,3.875 -0.16406,5.80469 l -13.28125,117.61328 c -0.49219,3.85547 -1.625,7.51172 -3.39453,10.96875 -0.11719,0.0742 -0.2461,0.14844 -0.35938,0.21875 -5.57031,3.45312 -16.22656,11.07031 -28.73828,20.35156 -0.98828,0.0937 -1.96094,0.30469 -2.96094,0.30469 h -38.79687 c -2.23047,-0.0898 -4.40234,-0.48438 -6.52344,-1.17969 -2.12109,-0.69922 -4.10547,-1.67187 -5.95312,-2.91797 -3.31641,-3.23047 -6.42188,-6.65625 -9.3086,-10.27343 -1.35547,-2.40235 -2.30468,-4.95704 -2.84375,-7.66016 -0.54297,-2.70703 -0.64843,-5.42969 -0.3164,-8.16797 L 191.17969,170.5 c 1.86328,-16.33203 17.22656,-30.14063 33.53515,-30.14063 z m -49.91406,522.0625 c -14.89062,0 -32.76172,8.13282 -37.875,10.6211 -16.67578,8.11328 -33.93359,17.07812 -47.804686,24.28515 -8.820313,4.58204 -17.855469,9.27735 -23.257813,11.89454 C 53.640625,686.55078 22.148438,588.89844 22.941406,568.94141 c 8.183594,-3.5 15.519532,-6.36719 22.191406,-8.98047 7.90625,-3.08594 14.726563,-5.75391 21.179688,-8.73828 2.957031,-1.3711 5.824219,-2.90235 8.601562,-4.60157 2.78125,-1.69531 5.453126,-3.54687 8.019532,-5.55078 2.570312,-2.00781 5.015625,-4.14844 7.335937,-6.43359 2.320313,-2.28516 4.507813,-4.69531 6.550781,-7.23047 2.046876,-2.53516 3.941408,-5.17578 5.683598,-7.92969 1.74609,-2.75 3.32422,-5.59375 4.74218,-8.52734 1.41797,-2.92969 2.66407,-5.9375 3.73829,-9.01172 1.07421,-3.07422 1.96875,-6.20313 2.68359,-9.37891 9.76172,-44.33203 31.41015,-70.90625 65.5,-101.83203 14.55859,-13.20703 85.89844,-68.05469 103.07422,-78.69531 7.75781,-4.81641 15.78515,-9.79688 24.23047,-11.49609 7.90625,-1.59375 15.5039,0.33593 19.37109,4.91015 4.78516,5.64844 3.76562,14.91406 0.80078,21.1211 -2.39844,4.72265 -24.36328,29.8164 -42.00781,49.97265 -17.23438,19.6836 -35.04688,40.03516 -47.35547,55.30078 -16.9375,21 -56.66406,98.73828 -49.94922,157.66407 0.57813,5.07031 8.20313,49.38671 15.26563,74.34375 -8.66407,-0.80469 -18.70313,-1.42579 -27.79688,-1.42579 z M 221.6875,335.28906 c -3.44922,-1.0039 -6.71094,-2.4375 -9.78516,-4.29687 h 15.41797 c -1.87109,1.42187 -3.75,2.85156 -5.63281,4.29687 z m 103.25,-158.07812 -11.95313,105.90234 c -3.32031,-0.0898 -6.60546,0.19531 -9.85937,0.85156 -4.71875,1.02344 -9.25391,2.58594 -13.60156,4.6875 0.0351,-0.25781 0.13281,-0.49609 0.16406,-0.75 l 13.28125,-117.61328 c 0.32422,-2.61328 0.38672,-5.22656 0.19531,-7.85156 -0.19531,-2.62109 -0.64453,-5.19922 -1.35156,-7.73438 -0.70313,-2.53125 -1.65234,-4.97265 -2.83984,-7.3164 -1.1875,-2.34766 -2.59375,-4.55469 -4.21875,-6.6211 8.84375,0.53125 16.76171,4.07813 22.39062,10.38282 6.16016,6.91015 8.93359,16.16406 7.79297,26.0625 z m 75.32422,416.91797 c 0.36328,3.43359 -1.50781,7.47656 -4.86719,10.54687 -4.52344,4.12891 -6.32031,5.63672 -10.94141,7.34766 -10.80859,4.01562 -21.8789,7.10156 -33.20312,9.26562 -11.32813,2.16016 -22.75781,3.36719 -34.28516,3.61719 -5.32422,0.0977 -9.4375,-0.1875 -11.96093,-2.07031 -2.52344,-1.88282 -3.77344,-6.25782 -2.8125,-9.92969 0.30859,-1.02734 0.72656,-2.00781 1.2539,-2.94531 0.53125,-0.9336 1.15235,-1.80078 1.875,-2.59766 0.71875,-0.79687 1.51953,-1.50781 2.39453,-2.125 0.87891,-0.62109 1.8125,-1.13672 2.80469,-1.54687 1.5625,-0.57032 8.55859,-1.94922 14.17578,-3.0586 12.67969,-2.49609 28.46485,-5.60156 36.57422,-9.09375 0.043,-0.0195 0.0703,-0.0586 0.11328,-0.0781 12.48047,-2.01563 24.35547,-4.22657 33.84766,-6.36719 1.40234,1.11719 2.53515,2.45703 3.40625,4.02344 0.87109,1.5625 1.41406,3.23437 1.625,5.01172 z m -6.74219,-183.91016 c -7.07031,6.94531 -13.49609,14.44531 -19.26953,22.50391 -4.62891,6.40625 -8.01953,17.58203 -5.14844,28.10156 0.59766,2.13281 1.4336,4.16797 2.51172,6.10156 -2.41797,0.72656 -5.00391,1.44922 -7.73828,2.17188 0.0234,-20.94532 0.043,-41.2461 0.043,-59.4961 0,-25.32812 11.01562,-45.95703 29.60156,-56.57422 z m 10.73438,155.02344 c -22.125,7.59375 -102.63282,18.26562 -111.64844,16.83984 -11.76563,-2.98828 -13.28516,-8.31641 -13.16797,-13.63672 0.17578,-8.63281 10.17187,-15.43359 19.95703,-17.6875 4.64453,-1.07031 10.98047,-2.13672 17.89453,-3.3125 11.78516,-1.99219 25.03516,-4.26172 35.20703,-7.28515 12.48047,-1.45313 24.81641,-3.70704 37.00782,-6.75782 6.15625,-0.875 12.34375,-1.38281 18.55859,-1.52734 2.21875,-0.10547 4.40234,0.13672 6.54297,0.72656 8.26562,3.10938 10.72656,9.32813 7.30078,18.48828 -2.74219,7.32422 -12.38672,12.34375 -17.65234,14.15235 z m 16.45312,-59.4336 c -13.66797,5.46094 -27.6875,9.79688 -42.05078,13.00391 -14.36719,3.20703 -28.89453,5.24609 -43.58594,6.11719 -5.875,0.34375 -12.5,0.48437 -16.76562,-2.33985 -3.91797,-2.59375 -5.95703,-8.45312 -4.73438,-13.64062 1.25391,-5.35547 5.64063,-10.33203 11.42578,-12.96485 1.875,-0.78906 10.92188,-2.86718 18.19922,-4.53125 14.66797,-3.35937 32.55469,-7.48437 42.96094,-11.67968 0.10937,0.0469 0.19141,0.10547 0.30078,0.15625 3.625,1.5664 7.41406,2.33203 11.36328,2.30468 9.08985,0 18.05078,-3.89453 24.5,-8.53125 2.73438,-2.02734 5.35156,-4.1914 7.85938,-6.48828 6.44531,3.75 10.2539,8.48047 11.0664,14.16016 0.67969,4.64453 -1.73047,10.20312 -6.27734,14.49219 -5.54297,5.23437 -8.04297,7.46093 -14.26172,9.9414 z m 22.67578,-80.30078 c -5.80859,11.78516 -23.32031,29.01563 -30.91015,34.46485 -5.37891,3.85937 -13.69532,6.89843 -19.23047,4.47265 -4.3125,-1.88281 -6.875,-4.52344 -7.84766,-8.07031 -1.37891,-5.07422 0.71094,-11.21484 2.55078,-13.76563 15.12891,-20.92187 30.54297,-33.80078 42.28125,-35.32421 0.53906,-0.0742 1.08594,-0.10938 1.63281,-0.10938 0.96875,0.0195 1.91797,0.15625 2.85547,0.40625 0.9336,0.25 1.82422,0.60547 2.67578,1.07422 0.84766,0.46484 1.625,1.02344 2.33985,1.67969 0.71094,0.65625 1.33594,1.38672 1.87109,2.1914 2.89453,4.05078 3.61328,9.27344 1.78125,12.98047 z m 108.3086,-126.2539 c 1.40234,-2.54297 2.45703,-5.22266 3.16406,-8.03907 0.70703,-2.8125 1.04297,-5.67187 1.01172,-8.57422 V 168.53516 c -0.0117,-2.56641 -0.25782,-5.10547 -0.73828,-7.62891 -0.47657,-2.51953 -1.17969,-4.97266 -2.10547,-7.36328 -0.92969,-2.39453 -2.06641,-4.67969 -3.41016,-6.86328 -1.34766,-2.1836 -2.87891,-4.22657 -4.60156,-6.12891 h 9.03125 c 0.83984,0.004 1.67578,0.043 2.50781,0.12891 0.83594,0.082 1.66406,0.20703 2.48438,0.37109 0.82421,0.16406 1.63671,0.36719 2.4375,0.60938 0.80078,0.24609 1.58984,0.52734 2.36328,0.85156 0.77343,0.32031 1.53125,0.67969 2.26953,1.07422 0.74219,0.39453 1.45703,0.82422 2.15625,1.29297 0.69531,0.46484 1.36719,0.96484 2.01562,1.49609 0.64844,0.53125 1.26953,1.09375 1.86328,1.6875 0.58985,0.59375 1.15235,1.21484 1.6836,1.86328 0.53125,0.64453 1.03125,1.32031 1.49609,2.01563 0.46875,0.69921 0.89844,1.41406 1.29297,2.15625 0.39453,0.73828 0.75391,1.49609 1.07422,2.26953 0.32422,0.77343 0.60547,1.5625 0.84766,2.36328 0.24609,0.80469 0.44921,1.61719 0.61328,2.4375 0.16406,0.82422 0.28906,1.65234 0.37109,2.48437 0.082,0.83594 0.125,1.67188 0.125,2.51172 v 106.91406 c -0.004,0.76563 -0.0391,1.52735 -0.10937,2.29297 -0.0703,0.76172 -0.17188,1.51953 -0.3125,2.27344 -0.13672,0.75391 -0.3086,1.5 -0.51172,2.23828 -0.20703,0.73828 -0.44532,1.46485 -0.71485,2.1836 -0.26953,0.71484 -0.57031,1.41796 -0.90234,2.10937 -0.33203,0.69141 -0.69531,1.36328 -1.08984,2.01953 -0.39454,0.66016 -0.81641,1.29688 -1.26563,1.91797 -0.44922,0.62109 -0.92578,1.21875 -1.42969,1.79297 -0.5039,0.57812 -1.03515,1.13281 -1.58593,1.66016 -0.55469,0.53125 -1.12891,1.03515 -1.73047,1.51171 -0.59766,0.48047 -1.21485,0.92969 -1.85547,1.35157 -0.63672,0.42578 -1.29297,0.8164 -1.96875,1.17968 -0.67578,0.36719 -1.36328,0.69922 -2.06641,1 -0.70312,0.30469 -1.42187,0.57422 -2.14844,0.8125 -0.72656,0.23829 -1.46484,0.44141 -2.21093,0.61329 -0.7461,0.17187 -1.5,0.3125 -2.25782,0.41406 -1.88671,0.2539 -3.85937,0.53515 -5.79296,0.80469 z m 0,0"
     fill-opacity="1"
     fill-rule="nonzero"
     id="path23" />
</svg>
