<?xml version="1.0"?>
<svg version="1.1" id="圖層_1" xmlns="http://www.w3.org/2000/svg" x="0" y="0" viewBox="0 0 100 100" xml:space="preserve"><path fill="none" stroke="#333" stroke-width="2.399" stroke-miterlimit="10" d="M36.753 47.406l-.67 11.043"/><path d="M10 31.442v4.116a2.997 2.997 0 0 0 2.997 2.997h74.007a2.997 2.997 0 0 0 2.997-2.997v-4.116" fill="#666" stroke="#333" stroke-width="5.141" stroke-linecap="round" stroke-miterlimit="10"/><g><path d="M72.833 29.369l5.084 41.84c.297 2.444-2.192 4.462-5.564 4.462h-46.09c-3.372 0-5.861-2.018-5.564-4.462l5.084-41.84c.197-1.622 2.527-2.916 5.208-2.916h36.635c2.68-.001 5.01 1.294 5.207 2.916z" fill="#e0e0e0" stroke="#333" stroke-width="3" stroke-linecap="round" stroke-miterlimit="10"/><path fill="#66503a" stroke="#333" stroke-width="3" stroke-linecap="round" stroke-miterlimit="10" d="M66.674 75.67l-3.563-49.218H52.602l.851 49.218z"/><path fill="#333" d="M31.982 38.609l.647-7.573h12.029l-.181 7.573z"/><path fill="none" stroke="#333" stroke-width="3" stroke-miterlimit="10" d="M43.03 42.729l-.565 18.649"/></g><path d="M90 31.442v-4.116a2.997 2.997 0 0 0-2.997-2.997H12.997A2.997 2.997 0 0 0 10 27.326v4.116" fill="#666" stroke="#333" stroke-width="5.141" stroke-linecap="round" stroke-miterlimit="10"/><metadata xmlns:d="https://loading.io/stock/"><d:name>insert card</d:name><d:tags>insert card,spend,pay,charge</d:tags><d:license>by</d:license><d:slug>vu0mwf</d:slug></metadata></svg>