<?xml version="1.0" encoding="UTF-8" standalone="no"?>
<svg
   width="1000"
   zoomAndPan="magnify"
   viewBox="0 0 750 809.99999"
   height="1080"
   preserveAspectRatio="xMidYMid"
   version="1.0"
   id="svg6314"
   sodipodi:docname="oxygen-level.svg"
   inkscape:version="1.2.1 (9c6d41e410, 2022-07-14)"
   xmlns:inkscape="http://www.inkscape.org/namespaces/inkscape"
   xmlns:sodipodi="http://sodipodi.sourceforge.net/DTD/sodipodi-0.dtd"
   xmlns="http://www.w3.org/2000/svg"
   xmlns:svg="http://www.w3.org/2000/svg">
  <sodipodi:namedview
     id="namedview6316"
     pagecolor="#ffffff"
     bordercolor="#000000"
     borderopacity="0.25"
     inkscape:showpageshadow="2"
     inkscape:pageopacity="0.0"
     inkscape:pagecheckerboard="0"
     inkscape:deskcolor="#d1d1d1"
     showgrid="false"
     inkscape:zoom="0.44378316"
     inkscape:cx="484.47084"
     inkscape:cy="665.86573"
     inkscape:window-width="1920"
     inkscape:window-height="991"
     inkscape:window-x="-9"
     inkscape:window-y="-9"
     inkscape:window-maximized="1"
     inkscape:current-layer="svg6314" />
  <defs
     id="defs6272">
    <clipPath
       id="6e432736e7">
      <path
         d="m 169.4375,38.398438 h 6.8125 v 41.261718 h -6.8125 z m 0,0"
         clip-rule="nonzero"
         id="path6266" />
    </clipPath>
    <clipPath
       id="dadebce09d">
      <path
         d="M 0.0078125,356 H 138.22656 v 56.34766 H 0.0078125 Z m 0,0"
         clip-rule="nonzero"
         id="path6269" />
    </clipPath>
  </defs>
  <path
     fill="#f4b789"
     d="m 239.45098,674.67076 1.12052,1.54451 0.43156,1.54452 c 7.18502,20.07868 14.02934,23.16014 33.85061,23.32671 l 135.99298,1.15838 0.48455,0.0379 c 6.06449,0.46941 13.6205,-0.99939 23.69013,-15.43757 l 1.40823,-2.01393 1.99121,-1.43095 c 3.23288,-2.32434 5.73893,-5.50422 7.25316,-9.19894 l 82.52553,-201.47585 c 2.15777,-5.26195 2.13506,-11.0463 -0.0681,-16.29311 -2.19564,-5.24681 -6.31434,-9.32008 -11.57629,-11.47029 -5.26952,-2.15778 -11.05388,-2.13507 -16.30825,0.0681 -5.24681,2.19563 -9.32009,6.30677 -11.47787,11.56871 l -25.17411,61.43231 -10.63746,-276.02895 v -0.33313 c 0.0454,-5.09538 -7.81343,-10.8646 -18.40546,-10.95545 l -2.18049,-0.0227 c -8.72954,-0.0757 -15.49815,3.71744 -17.76949,7.78314 -0.20442,11.22802 -0.12114,64.30177 0.24985,158.04774 0.0454,11.2583 0.053,13.71135 0.0454,14.10505 l -28.70979,0.16656 -1.80194,-90.55851 c 0.0454,-5.10295 -7.81342,-10.8646 -18.39789,-10.95545 l -2.18806,-0.0227 c -10.50118,-0.0909 -18.42061,5.45879 -18.58717,10.52389 l 1.67322,101.62753 -28.70979,0.54513 c -0.19686,-9.16866 -1.86251,-66.47469 -2.39249,-76.49889 -1.83221,-4.2777 -8.82039,-8.61597 -17.92848,-8.69925 l -2.18806,-0.0151 c -10.48604,-0.0909 -18.3979,5.44365 -18.58717,10.50118 l 1.79436,88.5673 -28.70223,0.7344 c -0.10599,-3.21774 -2.00635,-34.39573 -2.56662,-40.55864 -1.55208,-4.41398 -8.64625,-9.00967 -18.0799,-9.09295 l -2.18049,-0.0152 c -10.56176,-0.0908 -18.50389,5.5118 -18.59474,10.59961 l 0.0908,132.3664 c 5.2998,57.97229 13.31765,94.22295 19.12472,114.44549 5.97364,20.80552 10.89488,29.3912 11.48543,30.38302"
     fill-opacity="1"
     fill-rule="nonzero"
     id="path6276"
     style="stroke-width:1.93821" />
  <path
     fill="#a3bfd1"
     d="M 509.05202,295.5379 H 356.84164 c -11.90942,0 -21.55506,-9.64564 -21.55506,-21.54749 V 40.57946 c 0,-18.761308 15.21801,-33.9717459 33.98689,-33.9717459 h 127.34672 c 18.77645,0 33.99446,15.2104379 33.99446,33.9717459 v 233.41095 c 0,11.90185 -9.65321,21.54749 -21.56263,21.54749"
     fill-opacity="1"
     fill-rule="nonzero"
     id="path6278"
     style="stroke-width:1.93821" />
  <path
     fill="#606060"
     d="m 366.75228,223.36971 c -1.49909,0 -2.71805,-1.21138 -2.71805,-2.71047 V 38.489823 c 0,-1.491516 1.21896,-2.7029 2.71805,-2.7029 h 132.39668 c 1.49151,0 2.71047,1.211384 2.71047,2.7029 V 220.65924 c 0,1.49909 -1.21896,2.71047 -2.71047,2.71047 H 366.75228"
     fill-opacity="1"
     fill-rule="nonzero"
     id="path6280"
     style="stroke-width:1.93821" />
  <path
     fill="#424242"
     d="m 501.85186,220.65924 c 0,1.49909 -1.21139,2.71047 -2.7029,2.71047 H 366.75228 c -1.49909,0 -2.71805,-1.21138 -2.71805,-2.71047 V 38.489823 c 0,-1.491516 1.21896,-2.710471 2.71805,-2.710471 h 132.39668 c 1.49151,0 2.7029,1.218955 2.7029,2.710471 z M 499.14896,29.851142 H 366.75228 c -4.7774,0 -8.65383,3.868858 -8.65383,8.638681 V 220.65924 c 0,4.77739 3.87643,8.64625 8.65383,8.64625 h 132.39668 c 4.77739,0 8.64625,-3.86886 8.64625,-8.64625 V 38.489823 c 0,-4.769823 -3.86886,-8.638681 -8.64625,-8.638681"
     fill-opacity="1"
     fill-rule="nonzero"
     id="path6282"
     style="stroke-width:1.93821" />
  <path
     fill="#8095a0"
     d="m 461.76262,295.5379 h -57.62401 v -39.08984 c 0,-7.4273 6.01906,-13.43879 13.44636,-13.43879 h 30.73129 c 7.4273,0 13.44636,6.01149 13.44636,13.43879 v 39.08984"
     fill-opacity="1"
     fill-rule="nonzero"
     id="path6284"
     style="stroke-width:1.93821" />
  <path
     fill="#7db0cc"
     d="m 446.09035,267.25209 c 0,7.25316 -5.88279,13.13594 -13.14352,13.13594 -7.25316,0 -13.14351,-5.88278 -13.14351,-13.13594 0,-7.25316 5.89035,-13.12837 13.14351,-13.12837 7.26073,0 13.14352,5.87521 13.14352,13.12837"
     fill-opacity="1"
     fill-rule="nonzero"
     id="path6286"
     style="stroke-width:1.93821" />
  <path
     fill="#6896aa"
     d="m 393.47843,254.62341 h -35.37998 c -1.39309,0 -2.52876,-1.1281 -2.52876,-2.52119 0,-1.40066 1.13567,-2.52876 2.52876,-2.52876 h 35.37998 c 1.40067,0 2.52877,1.1281 2.52877,2.52876 0,1.39309 -1.1281,2.52119 -2.52877,2.52119"
     fill-opacity="1"
     fill-rule="nonzero"
     id="path6288"
     style="stroke-width:1.93821" />
  <path
     fill="#6896aa"
     d="m 393.9857,272.30205 h -35.37998 c -1.40066,0 -2.52876,-1.1281 -2.52876,-2.5212 0,-1.39309 1.1281,-2.52876 2.52876,-2.52876 h 35.37998 c 1.40066,0 2.52876,1.13567 2.52876,2.52876 0,1.3931 -1.1281,2.5212 -2.52876,2.5212"
     fill-opacity="1"
     fill-rule="nonzero"
     id="path6290"
     style="stroke-width:1.93821" />
  <path
     fill="#6896aa"
     d="m 507.29552,254.62341 h -35.38756 c -1.39309,0 -2.52876,-1.1281 -2.52876,-2.52119 0,-1.40066 1.13567,-2.52876 2.52876,-2.52876 h 35.38756 c 1.39309,0 2.52119,1.1281 2.52119,2.52876 0,1.39309 -1.1281,2.52119 -2.52119,2.52119"
     fill-opacity="1"
     fill-rule="nonzero"
     id="path6292"
     style="stroke-width:1.93821" />
  <path
     fill="#6896aa"
     d="m 507.79521,272.30205 h -35.37998 c -1.39309,0 -2.52876,-1.1281 -2.52876,-2.5212 0,-1.39309 1.13567,-2.52876 2.52876,-2.52876 h 35.37998 c 1.40066,0 2.52876,1.13567 2.52876,2.52876 0,1.3931 -1.1281,2.5212 -2.52876,2.5212"
     fill-opacity="1"
     fill-rule="nonzero"
     id="path6294"
     style="stroke-width:1.93821" />
  <g
     clip-path="url(#6e432736e7)"
     id="g6298"
     transform="matrix(1.9382141,0,0,1.9382141,202.03436,6.9029894)">
    <path
       fill="#6896aa"
       d="m 173.65625,79.59375 h -4.18359 V 38.417969 h 4.18359 c 1.43359,0 2.59766,1.164062 2.59766,2.59375 v 35.992187 c 0,1.429688 -1.16407,2.589844 -2.59766,2.589844"
       fill-opacity="1"
       fill-rule="nonzero"
       id="path6296" />
  </g>
  <path
     fill="#6896aa"
     d="m 327.27631,161.17272 h 8.11627 V 81.36524 h -8.11627 c -2.77861,0 -5.02725,2.256201 -5.02725,5.027243 v 69.760567 c 0,2.77104 2.24864,5.01967 5.02725,5.01967"
     fill-opacity="1"
     fill-rule="nonzero"
     id="path6300"
     style="stroke-width:1.93821" />
  <path
     fill="#00b769"
     d="m 405.04715,79.601161 c 0,4.959103 3.74015,7.631718 9.47151,9.161091 4.2777,-1.44609 7.56357,-4.504834 7.56357,-9.009666 0,-3.974855 -2.3622,-8.09356 -8.40397,-8.09356 -5.57994,0 -8.63111,3.664436 -8.63111,7.942135 z m 18.48874,24.818229 c 0,-6.034207 -4.20198,-8.933958 -10.92516,-10.849458 -5.80707,1.688367 -8.94153,5.504226 -8.94153,10.236198 -0.22714,5.04238 3.58872,9.4715 9.93335,9.4715 6.0342,0 9.93334,-3.74771 9.93334,-8.85824 z m -26.74886,0.30284 c 0,-6.261337 3.74771,-10.690459 9.85763,-13.287363 l -0.0757,-0.227134 c -5.49666,-2.596904 -7.86642,-6.874603 -7.86642,-11.152302 0,-7.866424 6.64747,-13.211656 15.36186,-13.211656 9.6305,0 14.43818,6.034205 14.43818,12.219835 0,4.201989 -2.05935,8.706821 -8.17684,11.606571 v 0.234706 c 6.1932,2.437909 10.00905,6.791321 10.00905,12.825523 0,8.63111 -7.40458,14.43062 -16.88366,14.43062 -10.39518,0 -16.66409,-6.18563 -16.66409,-13.4388"
     fill-opacity="1"
     fill-rule="nonzero"
     id="path6302"
     style="stroke-width:1.93821" />
  <path
     fill="#00b769"
     d="m 442.64547,92.729534 c 0,12.908806 3.97486,20.237686 10.08477,20.237686 6.88218,0 10.16806,-8.01785 10.16806,-20.691955 0,-12.219834 -3.13446,-20.237681 -10.09235,-20.237681 -5.88278,0 -10.16048,7.177449 -10.16048,20.69195 z m 26.97601,-0.757115 c 0,16.876091 -6.26891,26.188611 -17.26979,26.188611 -9.70622,0 -16.27797,-9.08538 -16.4294,-25.507207 0,-16.641386 7.17745,-25.810048 17.26979,-25.810048 10.46333,0 16.4294,9.320085 16.4294,25.128644"
     fill-opacity="1"
     fill-rule="nonzero"
     id="path6304"
     style="stroke-width:1.93821" />
  <path
     fill="#00b769"
     d="m 423.55861,175.19449 c 0,-7.09417 -4.05057,-11.37186 -10.24377,-11.37186 -4.05056,0 -7.79071,2.51362 -9.6305,6.10991 -0.45427,0.75712 -0.75711,1.74894 -0.75711,2.97546 0.15142,8.17685 3.89914,14.20348 10.92516,14.20348 5.80708,0 9.70622,-4.80768 9.70622,-11.91699 z m 1.90793,-28.63408 c -1.37038,-0.0757 -3.13446,0 -5.04239,0.31041 -10.54661,1.74894 -16.12654,9.46394 -17.26979,17.63321 h 0.22713 c 2.36978,-3.12689 6.49605,-5.72379 12.00028,-5.72379 8.7901,0 14.97573,6.33705 14.97573,16.03569 0,9.08538 -6.18563,17.48936 -16.50511,17.48936 -10.62232,0 -17.57263,-8.25255 -17.57263,-21.15379 0,-9.77436 3.51301,-17.48936 8.40397,-22.38032 4.12628,-4.04299 9.63051,-6.56419 15.89184,-7.3213 1.99122,-0.31042 3.67201,-0.38613 4.89097,-0.38613 v 5.49666"
     fill-opacity="1"
     fill-rule="nonzero"
     id="path6306"
     style="stroke-width:1.93821" />
  <path
     fill="#00b769"
     d="m 442.35777,166.8738 c 0,12.90881 3.97485,20.24525 10.08477,20.24525 6.88218,0 10.16805,-8.02542 10.16805,-20.69952 0,-12.21984 -3.13445,-20.23768 -10.09234,-20.23768 -5.88278,0 -10.16048,7.17745 -10.16048,20.69195 z m 26.976,-0.75712 c 0,16.87609 -6.26891,26.18861 -17.26979,26.18861 -9.70621,0 -16.27797,-9.08538 -16.42939,-25.5072 0,-16.64139 7.17745,-25.81005 17.26979,-25.81005 10.4709,0 16.42939,9.32008 16.42939,25.12864"
     fill-opacity="1"
     fill-rule="nonzero"
     id="path6308"
     style="stroke-width:1.93821" />
  <g
     clip-path="url(#dadebce09d)"
     id="g6312"
     transform="matrix(1.9382141,0,0,1.9382141,202.03436,6.9029894)">
    <path
       fill="#55646d"
       d="m 12.222656,411.38281 113.171874,0.96485 c 6.80469,0.0586 12.36719,-5.40625 12.42578,-12.20313 l 0.26172,-30.69531 c 0.0586,-6.79688 -5.41016,-12.35547 -12.21484,-12.41406 L 12.695312,356.07031 c -6.804687,-0.0586 -12.367187,5.40625 -12.425781,12.20703 l -0.2617185,30.69141 c -0.0585937,6.79687 5.4101565,12.35937 12.2148435,12.41406"
       fill-opacity="1"
       fill-rule="nonzero"
       id="path6310" />
  </g>
</svg>
