<?xml version="1.0" encoding="UTF-8"?>
<!DOCTYPE svg PUBLIC "-//W3C//DTD SVG 1.1//EN" "http://www.w3.org/Graphics/SVG/1.1/DTD/svg11.dtd">
<!-- Creator: CorelDRAW X5 -->
<svg xmlns="http://www.w3.org/2000/svg" xml:space="preserve" width="210mm" height="220mm" style="shape-rendering:geometricPrecision; text-rendering:geometricPrecision; image-rendering:optimizeQuality; fill-rule:evenodd; clip-rule:evenodd"
viewBox="0 0 210 220"
 xmlns:xlink="http://www.w3.org/1999/xlink"
 zoomAndPan="magnify"
 version="1.0">
 <defs>
  <style type="text/css">
   <![CDATA[
    .fil5 {fill:none}
    .fil0 {fill:#126E82}
    .fil4 {fill:#132C33}
    .fil2 {fill:gray}
    .fil1 {fill:#F7DF68}
    .fil6 {fill:black;fill-rule:nonzero}
    .fil3 {fill:black;fill-opacity:0.000000}
   ]]>
  </style>
    <clipPath id="id0">
     <path d="M5.3899 15.8458l199.22 0 0 51.9942c-1.744,-5.5551 -6.933,-9.585 -13.0635,-9.585l-0.2898 0 -0.2898 0c-0.9637,0 -1.9047,0.1003 -2.8125,0.2899l-5.107 0c-0.7631,-0.1601 -1.5257,-0.2526 -2.2817,-0.282 -0.9326,-0.1977 -1.8844,-0.2976 -2.8386,-0.2976l-0.9624 0c-0.5929,0 -1.1786,-0.1597 -1.7538,-0.3034l-0.6296 -0.1573c-0.9356,-0.2339 -1.8732,-0.3648 -2.8003,-0.4009l-0.1517 -0.0312 0 -0.0002c-0.815,-0.1631 -1.6293,-0.3352 -2.454,-0.4421 -0.3089,-0.1047 -0.6299,-0.2 -0.9681,-0.2847l-1.4398 -0.3597c-0.8563,-0.4281 -1.7062,-0.7661 -2.6308,-1.0188 -0.7366,-0.3976 -1.4949,-0.7208 -2.2661,-0.9719 -0.8608,-0.4964 -1.7639,-0.8915 -2.6922,-1.1854 0.2456,-0.4413 0.4647,-0.8935 0.6578,-1.354 0.0686,-0.0967 0.1357,-0.194 0.2015,-0.292 0.6607,-0.7896 1.2178,-1.6364 1.673,-2.5221l0.3233 -0.4069c5.5824,-4.3683 6.94,-12.3703 2.9431,-18.3661 -4.1935,-6.2909 -12.6938,-7.9915 -18.9845,-3.7977l-0.6867 0.4577c-0.8048,0.5191 -1.5674,1.1302 -2.272,1.835l-0.9647 0.9647c-0.876,0.8418 -1.6511,1.812 -2.2943,2.9013 -0.5756,0.7264 -1.1123,1.4448 -1.5849,2.2694 -0.2118,0.2696 -0.4145,0.5486 -0.6076,0.8371 -0.5591,0.6687 -1.0615,1.3997 -1.4959,2.1899l-1.8503 -0.2644c-1.3639,-0.2272 -2.6929,-0.4933 -4.0462,-0.7636 -0.2477,-0.0495 -0.4974,-0.0922 -0.7473,-0.128l-4.057 -0.5798c-0.4357,-0.0623 -0.8752,-0.1035 -1.3149,-0.1235l-6.3751 -0.2896c-0.2067,-0.0095 -0.4144,-0.0142 -0.6215,-0.0142l-6.3749 0c-1.3264,0 -2.6418,0.1927 -3.9055,0.5688 -0.1915,0.0393 -0.383,0.0821 -0.5743,0.1298 -0.405,0.1013 -0.8129,0.1979 -1.2176,0.3045 -1.3565,0.1933 -2.7054,0.5945 -4.0033,1.2191 -0.9718,0.2654 -1.9005,0.6358 -2.7735,1.0973 -2.5905,1.216 -4.7376,3.2198 -6.1331,5.7028 -0.6966,0.8893 -1.2854,1.8669 -1.7472,2.9132 -0.5634,1.0058 -1.0037,2.0895 -1.3003,3.2314 -0.4148,1.0122 -0.7122,2.0847 -0.8749,3.2011 -0.6523,1.5965 -1.0128,3.3435 -1.0128,5.1744l0 10.1423c0,0.7632 0.064,1.5249 0.1907,2.2765 -0.249,0.2235 -0.4887,0.4553 -0.7188,0.6946l-3.5758 3.5759c-0.5721,0.5721 -1.083,1.1832 -1.5329,1.8236 -0.1146,0.1168 -0.2262,0.2354 -0.3358,0.3549 -0.2546,0.2327 -0.4956,0.4756 -0.7392,0.7193 -1.1535,1.1534 -2.0574,2.4615 -2.7132,3.8574 -0.5138,0.9694 -0.9145,2.008 -1.1847,3.098 -0.1252,0.0616 -0.2494,0.1252 -0.373,0.1907 -0.1934,0.0911 -0.3853,0.1872 -0.5752,0.2878 -0.1948,0.0917 -0.3878,0.1883 -0.5791,0.2897 -1.3912,0.6549 -2.6953,1.5565 -3.8453,2.706 -0.2405,0.2404 -0.485,0.4812 -0.7218,0.7252 -2.5651,2.4881 -4.1597,5.9713 -4.1597,9.8268l0 0.2896c0,4.6889 2.358,8.8261 5.9522,11.2936 -2.7658,2.505 -4.5033,6.1244 -4.5033,10.1499 0,2.7111 0.7883,5.2382 2.1481,7.3644 -1.8874,2.3465 -3.0175,5.3277 -3.0175,8.5732 0,2.5896 0.7199,5.0107 1.9697,7.0757 -0.708,1.6527 -1.1003,3.473 -1.1003,5.3845l0 0.8694c0,4.1163 1.8173,7.8072 4.6929,10.3166 1.3277,5.7904 6.3271,10.1799 12.4171,10.5868 0.1722,0.038 0.3452,0.0727 0.5197,0.104 2.507,2.8815 6.1995,4.7048 10.3191,4.7084l78.7466 0.0724c4.6334,0.0043 8.7309,-2.2942 11.211,-5.8146 0.1752,-0.0569 0.3488,-0.1175 0.5207,-0.1816 0.8692,-0.2577 1.7026,-0.5993 2.4903,-1.0154 1.4577,-0.4892 2.8055,-1.2173 3.9979,-2.1371 1.0285,-0.1962 2.0486,-0.5141 3.0417,-0.96 0.9489,-0.2135 1.8888,-0.5309 2.8038,-0.9591 0.4837,-0.1625 0.9629,-0.3532 1.4356,-0.5736 0.7076,-0.2354 1.3996,-0.5303 2.0684,-0.8845 0.1975,-0.0928 0.3934,-0.1906 0.5872,-0.2935 0.6968,-0.3279 1.3715,-0.7177 2.0162,-1.1694l0 52.7923 -199.22 0 0 -199.22zm193.302 83.5573l-0.1137 -0.0233 0.0002 -0.0003c-1.3107,-0.2622 -2.5754,-0.5297 -3.9199,-0.554 -0.5266,-0.1112 -1.0594,-0.2102 -1.5874,-0.3156 -0.8682,-0.1734 -1.7336,-0.26 -2.5876,-0.2669l-0.3582 -0.0511 -0.4742 -0.1185c-1.0223,-0.2554 -2.047,-0.3888 -3.058,-0.409 -0.3248,-0.0542 -0.6399,-0.1042 -0.9525,-0.1471l0.2503 -0.3336c0.6071,-0.5122 1.1555,-1.088 1.7165,-1.649 0.5986,-0.5987 1.1298,-1.2393 1.5943,-1.912l-0.0559 0.0841c-0.7338,1.1015 1.8724,-1.8723 2.8082,-2.8084 0.5979,-0.5978 1.1283,-1.2375 1.5926,-1.9094l-0.0541 0.0812c0.3512,-0.3512 0.7031,-0.696 1.034,-1.0671 0.6813,-0.6014 1.2934,-1.2633 1.8326,-1.9732 0.5656,-0.4296 1.0911,-0.8984 1.5742,-1.4002l0.026 -0.026c0.8964,-0.6273 1.6991,-1.3496 2.4017,-2.1455 0.2497,-0.2225 0.4912,-0.4543 0.724,-0.6944 1.6095,-1.5636 2.8362,-3.5193 3.525,-5.7133l0 23.6717c-0.711,-0.0466 -1.4346,-0.0292 -2.1474,-0.0292 -0.9203,-0.1923 -1.8597,-0.2899 -2.8024,-0.2899l-0.9683 0z"/>
    </clipPath>
    <clipPath id="id1">
     <path d="M5.3899 15.8458l199.22 0 0 51.9942c-1.744,-5.5551 -6.933,-9.585 -13.0635,-9.585l-0.2898 0 -0.2898 0c-0.9637,0 -1.9047,0.1003 -2.8125,0.2899l-5.107 0c-0.7631,-0.1601 -1.5257,-0.2526 -2.2817,-0.282 -0.9326,-0.1977 -1.8844,-0.2976 -2.8386,-0.2976l-0.9624 0c-0.5929,0 -1.1786,-0.1597 -1.7538,-0.3034l-0.6296 -0.1573c-0.9356,-0.2339 -1.8732,-0.3648 -2.8003,-0.4009l-0.1517 -0.0312 0 -0.0002c-0.815,-0.1631 -1.6293,-0.3352 -2.454,-0.4421 -0.3089,-0.1047 -0.6299,-0.2 -0.9681,-0.2847l-1.4398 -0.3597c-0.8563,-0.4281 -1.7062,-0.7661 -2.6308,-1.0188 -0.7366,-0.3976 -1.4949,-0.7208 -2.2661,-0.9719 -0.8608,-0.4964 -1.7639,-0.8915 -2.6922,-1.1854 0.2456,-0.4413 0.4647,-0.8935 0.6578,-1.354 0.0686,-0.0967 0.1357,-0.194 0.2015,-0.292 0.6607,-0.7896 1.2178,-1.6364 1.673,-2.5221l0.3233 -0.4069c5.5824,-4.3683 6.94,-12.3703 2.9431,-18.3661 -4.1935,-6.2909 -12.6938,-7.9915 -18.9845,-3.7977l-0.6867 0.4577c-0.8048,0.5191 -1.5674,1.1302 -2.272,1.835l-0.9647 0.9647c-0.876,0.8418 -1.6511,1.812 -2.2943,2.9013 -0.5756,0.7264 -1.1123,1.4448 -1.5849,2.2694 -0.2118,0.2696 -0.4145,0.5486 -0.6076,0.8371 -0.5591,0.6687 -1.0615,1.3997 -1.4959,2.1899l-1.8503 -0.2644c-1.3639,-0.2272 -2.6929,-0.4933 -4.0462,-0.7636 -0.2477,-0.0495 -0.4974,-0.0922 -0.7473,-0.128l-4.057 -0.5798c-0.4357,-0.0623 -0.8752,-0.1035 -1.3149,-0.1235l-6.3751 -0.2896c-0.2067,-0.0095 -0.4144,-0.0142 -0.6215,-0.0142l-6.3749 0c-1.3264,0 -2.6418,0.1927 -3.9055,0.5688 -0.1915,0.0393 -0.383,0.0821 -0.5743,0.1298 -0.405,0.1013 -0.8129,0.1979 -1.2176,0.3045 -1.3565,0.1933 -2.7054,0.5945 -4.0033,1.2191 -0.9718,0.2654 -1.9005,0.6358 -2.7735,1.0973 -2.5905,1.216 -4.7376,3.2198 -6.1331,5.7028 -0.6966,0.8893 -1.2854,1.8669 -1.7472,2.9132 -0.5634,1.0058 -1.0037,2.0895 -1.3003,3.2314 -0.4148,1.0122 -0.7122,2.0847 -0.8749,3.2011 -0.6523,1.5965 -1.0128,3.3435 -1.0128,5.1744l0 10.1423c0,0.7632 0.064,1.5249 0.1907,2.2765 -0.249,0.2235 -0.4887,0.4553 -0.7188,0.6946l-3.5758 3.5759c-0.5721,0.5721 -1.083,1.1832 -1.5329,1.8236 -0.1146,0.1168 -0.2262,0.2354 -0.3358,0.3549 -0.2546,0.2327 -0.4956,0.4756 -0.7392,0.7193 -1.1535,1.1534 -2.0574,2.4615 -2.7132,3.8574 -0.5138,0.9694 -0.9145,2.008 -1.1847,3.098 -0.1252,0.0616 -0.2494,0.1252 -0.373,0.1907 -0.1934,0.0911 -0.3853,0.1872 -0.5752,0.2878 -0.1948,0.0917 -0.3878,0.1883 -0.5791,0.2897 -1.3912,0.6549 -2.6953,1.5565 -3.8453,2.706 -0.2405,0.2404 -0.485,0.4812 -0.7218,0.7252 -2.5651,2.4881 -4.1597,5.9713 -4.1597,9.8268l0 0.2896c0,4.6889 2.358,8.8261 5.9522,11.2936 -2.7658,2.505 -4.5033,6.1244 -4.5033,10.1499 0,2.7111 0.7883,5.2382 2.1481,7.3644 -1.8874,2.3465 -3.0175,5.3277 -3.0175,8.5732 0,2.5896 0.7199,5.0107 1.9697,7.0757 -0.708,1.6527 -1.1003,3.473 -1.1003,5.3845l0 0.8694c0,4.1163 1.8173,7.8072 4.6929,10.3166 1.3277,5.7904 6.3271,10.1799 12.4171,10.5868 0.1722,0.038 0.3452,0.0727 0.5197,0.104 2.507,2.8815 6.1995,4.7048 10.3191,4.7084l78.7466 0.0724c4.6334,0.0043 8.7309,-2.2942 11.211,-5.8146 0.1752,-0.0569 0.3488,-0.1175 0.5207,-0.1816 0.8692,-0.2577 1.7026,-0.5993 2.4903,-1.0154 1.4577,-0.4892 2.8055,-1.2173 3.9979,-2.1371 1.0285,-0.1962 2.0486,-0.5141 3.0417,-0.96 0.9489,-0.2135 1.8888,-0.5309 2.8038,-0.9591 0.4837,-0.1625 0.9629,-0.3532 1.4356,-0.5736 0.7076,-0.2354 1.3996,-0.5303 2.0684,-0.8845 0.1975,-0.0928 0.3934,-0.1906 0.5872,-0.2935 0.6968,-0.3279 1.3715,-0.7177 2.0162,-1.1694l0 52.7923 -199.22 0 0 -199.22zm193.302 83.5573l-0.1137 -0.0233 0.0002 -0.0003c-1.3107,-0.2622 -2.5754,-0.5297 -3.9199,-0.554 -0.5266,-0.1112 -1.0594,-0.2102 -1.5874,-0.3156 -0.8682,-0.1734 -1.7336,-0.26 -2.5876,-0.2669l-0.3582 -0.0511 -0.4742 -0.1185c-1.0223,-0.2554 -2.047,-0.3888 -3.058,-0.409 -0.3248,-0.0542 -0.6399,-0.1042 -0.9525,-0.1471l0.2503 -0.3336c0.6071,-0.5122 1.1555,-1.088 1.7165,-1.649 0.5986,-0.5987 1.1298,-1.2393 1.5943,-1.912l-0.0559 0.0841c-0.7338,1.1015 1.8724,-1.8723 2.8082,-2.8084 0.5979,-0.5978 1.1283,-1.2375 1.5926,-1.9094l-0.0541 0.0812c0.3512,-0.3512 0.7031,-0.696 1.034,-1.0671 0.6813,-0.6014 1.2934,-1.2633 1.8326,-1.9732 0.5656,-0.4296 1.0911,-0.8984 1.5742,-1.4002l0.026 -0.026c0.8964,-0.6273 1.6991,-1.3496 2.4017,-2.1455 0.2497,-0.2225 0.4912,-0.4543 0.724,-0.6944 1.6095,-1.5636 2.8362,-3.5193 3.525,-5.7133l0 23.6717c-0.711,-0.0466 -1.4346,-0.0292 -2.1474,-0.0292 -0.9203,-0.1923 -1.8597,-0.2899 -2.8024,-0.2899l-0.9683 0z"/>
    </clipPath>
     <clipPath id="id2">
      <path d="M139.529 4.9341l-32.478 0 0 32.4198 32.478 0 0 -32.4198zm0 0z"/>
     </clipPath>
     <clipPath id="id3">
      <path d="M139.529 4.9341l-32.478 0 0 32.4198 32.478 0 0 -32.4198zm0 0z"/>
     </clipPath>
     <clipPath id="id4">
      <path d="M158.233 37.7694l-33.6666 0 0 138.615 33.6666 0 0 -138.615zm0 0z"/>
     </clipPath>
     <clipPath id="id5">
      <path d="M158.233 37.7694l-33.6666 0 0 138.615 33.6666 0 0 -138.615zm0 0z"/>
     </clipPath>
 </defs>
 <g id="Layer_x0020_1">
  <metadata id="CorelCorpID_0Corel-Layer"/>
  <g id="_307189648">
   <path id="_307997304" class="fil0" d="M202.32 183.008c0,-2.531 -2.047,-4.5804 -4.5787,-4.5804l-185.481 0c-2.5301,0 -4.5806,2.0503 -4.5806,4.5804l0 13.7399c0,2.5296 2.0515,4.5786 4.5806,4.5786l185.481 0c2.5306,0 4.5787,-2.048 4.5787,-4.5786l0 -13.7399zm-91.9176 -6.7696c-0.5797,1.2896 -1.8764,2.1892 -3.3818,2.1892 -1.497,0 -2.7884,-0.8914 -3.3717,-2.1714l6.7535 -0.0178zm51.9178 -0.1377c-0.5472,1.3628 -1.8817,2.3269 -3.44,2.3269 -1.5514,0 -2.8799,-0.9556 -3.4311,-2.3087l6.8711 -0.0182zm-85.9429 -153.386c0,-2.5292 -2.0519,-4.5786 -4.5806,-4.5786l-59.5359 0c-2.5291,0 -4.5806,2.049 -4.5806,4.5786l0 38.9292c0,2.5298 2.0515,4.5787 4.5806,4.5787l59.5359 0c2.5287,0 4.5806,-2.0493 4.5806,-4.5787l0 -38.9292z"/>
   <path id="_307185592" class="fil1" d="M17.6977 27.8651l48.6601 0 0 28.6228 -48.6601 0 0 -28.6228zm0 0z"/>
   <path id="_307185712" class="fil2" d="M42.0287 204.188c0,-1.5792 -1.281,-2.862 -2.8619,-2.862l-17.1753 0c-1.5809,0 -2.8618,1.2828 -2.8618,2.862l0 5.7256c0,1.579 1.2809,2.8619 2.8618,2.8619l17.1753 0c1.5809,0 2.8619,-1.2829 2.8619,-2.8619l0 -5.7256zm148.842 0c0,-1.5792 -1.281,-2.862 -2.8619,-2.862l-17.1734 0c-1.5809,0 -2.8619,1.2828 -2.8619,2.862l0 5.7256c0,1.579 1.281,2.8619 2.8619,2.8619l17.1734 0c1.5809,0 2.8619,-1.2829 2.8619,-2.8619l0 -5.7256zm-143.118 -137.966l-11.4475 0 0 112.205 11.4475 0 0 -112.205zm0 0z"/>
   <g style="clip-path:url(#id0)">
    <polygon id="_307186168" class="fil3" points="5.3899,15.8458 204.61,15.8458 204.61,215.066 5.3899,215.066 "/>
   </g>
   <g style="clip-path:url(#id1)">
    <g>
     <path id="_3071874881" class="fil4" d="M34.0146 68.5128l0 107.626 -21.7539 0c-1.8224,0 -3.5693,0.7263 -4.8578,2.0148 -1.2885,1.2867 -2.013,3.0336 -2.013,4.8541 0,3.9902 0,9.7497 0,13.7399 0,1.8205 0.7245,3.5712 2.013,4.8597 1.2885,1.2885 3.0354,2.0092 4.8578,2.0092l4.6107 0c-0.0207,0.1886 -0.032,0.3773 -0.032,0.5717l0 5.7256c0,2.845 2.3073,5.1522 5.1521,5.1522l17.1753 0c2.8449,0 5.1521,-2.3072 5.1521,-5.1522l0 -5.7256c0,-0.1944 -0.0113,-0.3831 -0.032,-0.5717l121.428 0c-0.0226,0.1886 -0.032,0.3773 -0.032,0.5717l0 5.7256c0,2.845 2.3054,5.1522 5.1521,5.1522l17.1734 0c2.8449,0 5.1521,-2.3072 5.1521,-5.1522l0 -5.7256c0,-0.1944 -0.0112,-0.3831 -0.0283,-0.5717l4.6089 0c1.8205,0 3.5712,-0.7207 4.8597,-2.0092 1.2886,-1.2885 2.0092,-3.0392 2.0092,-4.8597 0,-3.9902 0,-9.7497 0,-13.7399 0,-1.8205 -0.7206,-3.5674 -2.0092,-4.8541 -1.2885,-1.2885 -3.0392,-2.0148 -4.8597,-2.0148l-33.0354 0c0.1113,-0.4527 0.1678,-0.9282 0.1678,-1.4149 0,-0.4868 -0.0565,-0.9621 -0.1678,-1.4131l4.4126 0c3.792,0 6.8689,-3.075 6.8689,-6.8708l0 -81.967c0,-5.1579 -2.0507,-10.1101 -5.7012,-13.7625 -3.6504,-3.6524 -8.6008,-5.7011 -13.7624,-5.7011l-10.1704 0 0 -3.0336c0.8225,-0.2415 1.579,-0.6867 2.196,-1.2999 0.9659,-0.9677 1.5073,-2.2788 1.5073,-3.6466l0 -1.6828c0,-1.3678 -0.5414,-2.6733 -1.5073,-3.6412 -0.9679,-0.9677 -2.277,-1.5111 -3.6448,-1.5111 -5.6635,0 -18.243,0 -23.9084,0 -1.3658,0 -2.677,0.5434 -3.6429,1.5111 -0.9659,0.9679 -1.5092,2.2734 -1.5092,3.6412 0,0.5546 0,1.1338 0,1.6828 0,1.3678 0.5433,2.6789 1.5092,3.6466 0.6168,0.6132 1.3734,1.0584 2.1959,1.2999l0 3.0336 -10.1704 0c-5.1616,0 -10.1138,2.0487 -13.7643,5.7011 -3.6504,3.6524 -5.6993,8.6046 -5.6993,13.7625 0,24.4403 0,67.8443 0,81.967 0,3.7958 3.0751,6.8708 6.869,6.8708l4.4107 0c-0.1094,0.451 -0.1678,0.9263 -0.1678,1.4131 0,0.4867 0.0584,0.9622 0.1678,1.4149l-51.152 0 0 -107.626 21.7538 0c1.8224,0 3.5694,-0.7206 4.8579,-2.0091 1.2885,-1.2886 2.013,-3.0393 2.013,-4.8598l0 -38.9292c0,-1.8205 -0.7245,-3.5656 -2.013,-4.8541 -1.2885,-1.2941 -3.0355,-2.0148 -4.8579,-2.0148 -12.4908,0 -47.0469,0 -59.5359,0 -1.8224,0 -3.5693,0.7207 -4.8578,2.0148 -1.2885,1.2885 -2.013,3.0336 -2.013,4.8541 0,9.1838 0,29.7472 0,38.9292 0,1.8205 0.7245,3.5712 2.013,4.8598 1.2885,1.2885 3.0354,2.0091 4.8578,2.0091l21.7539 0zm5.7237 135.676l0 5.7256c0,0.315 -0.2565,0.5717 -0.5715,0.5717l-17.1753 0c-0.3169,0 -0.5715,-0.2567 -0.5715,-0.5717 0,0 0,-5.7256 0,-5.7256 0,-0.3133 0.2546,-0.5717 0.5715,-0.5717l17.1753 0c0.315,0 0.5715,0.2584 0.5715,0.5717zm148.844 0l0 5.7256c0,0.315 -0.2565,0.5717 -0.5734,0.5717l-17.1734 0c-0.3169,0 -0.5735,-0.2567 -0.5735,-0.5717 0,0 0,-5.7256 0,-5.7256 0,-0.3133 0.2566,-0.5717 0.5735,-0.5717l17.1734 0c0.3169,0 0.5734,0.2584 0.5734,0.5717zm11.4478 -21.1805c0,3.9902 0,9.7497 0,13.7399 0,0.6055 -0.2398,1.1903 -0.6698,1.6186 -0.4283,0.4301 -1.0132,0.6697 -1.6187,0.6697l-185.481 0c-0.6074,0 -1.1904,-0.2396 -1.6205,-0.6697 -0.4282,-0.4283 -0.6697,-1.0131 -0.6697,-1.6186 0,-3.9902 0,-9.7497 0,-13.7399 0,-0.6074 0.2415,-1.1903 0.6697,-1.6205 0.4301,-0.4282 1.0131,-0.6697 1.6205,-0.6697l185.481 0c0.6055,0 1.1904,0.2415 1.6187,0.6697 0.43,0.4302 0.6698,1.0131 0.6698,1.6205zm-46.9753 -9.6969l-40.2063 0c0.1094,0.451 0.1679,0.9263 0.1679,1.4131 0,0.4867 -0.0585,0.9622 -0.1679,1.4149l40.2063 0c-0.1094,-0.4527 -0.1679,-0.9282 -0.1679,-1.4149 0,-0.4868 0.0585,-0.9621 0.1679,-1.4131zm-108.833 -104.798l-5.6276 0 0 107.626 6.8708 0 0 -107.626 -1.2432 0zm62.7996 104.798c0.781,0 1.4149,0.6339 1.4149,1.4131 0,0.7792 -0.6339,1.4149 -1.4149,1.4149 -0.7791,0 -1.4131,-0.6357 -1.4131,-1.4149 0,-0.7792 0.634,-1.4131 1.4131,-1.4131zm51.8596 0c0.781,0 1.4148,0.6339 1.4148,1.4131 0,0.7792 -0.6338,1.4149 -1.4148,1.4149 -0.7811,0 -1.4149,-0.6357 -1.4149,-1.4149 0,-0.7792 0.6338,-1.4131 1.4149,-1.4131zm12.5267 -88.8378l0 81.967c0,1.266 -1.0244,2.2903 -2.2884,2.2903 -14.3039,0 -58.0323,0 -72.3343,0 -1.264,0 -2.2903,-1.0243 -2.2903,-2.2903 0,0 0,-81.967 0,-81.967 0,-3.9429 1.5678,-7.733 4.3599,-10.5213 2.7902,-2.794 6.5764,-4.3617 10.525,-4.3617 0,0 47.145,0 47.145,0 3.9467,0 7.733,1.5677 10.5251,4.3617 2.7902,2.7883 4.358,6.5784 4.358,10.5213zm-48.1544 -2.3525l0 73.4077c0,1.2659 1.0263,2.2903 2.2904,2.2903 1.264,0 2.2883,-1.0244 2.2883,-2.2903l0 -73.4077c0,-1.2641 -1.0243,-2.2904 -2.2883,-2.2904 -1.2641,0 -2.2904,1.0263 -2.2904,2.2904zm29.6341 0l0 73.4077c0,1.2659 1.0262,2.2903 2.2902,2.2903 1.264,0 2.2885,-1.0244 2.2885,-2.2903l0 -73.4077c0,-1.2641 -1.0245,-2.2904 -2.2885,-2.2904 -1.264,0 -2.2902,1.0263 -2.2902,2.2904zm-14.8171 0l0 73.4077c0,1.2659 1.0263,2.2903 2.2903,2.2903 1.2621,0 2.2903,-1.0244 2.2903,-2.2903l0 -73.4077c0,-1.2641 -1.0282,-2.2904 -2.2903,-2.2904 -1.264,0 -2.2903,1.0263 -2.2903,2.2904zm-29.634 0l0 73.4077c0,1.2659 1.0264,2.2903 2.2904,2.2903 1.2638,0 2.2902,-1.0244 2.2902,-2.2903l0 -73.4077c0,-1.2641 -1.0264,-2.2904 -2.2902,-2.2904 -1.264,0 -2.2904,1.0263 -2.2904,2.2904zm15.6923 -17.1111l17.645 0 0 -2.828 -17.645 0 0 2.828zm-111.867 -1.0754l59.5359 0c0.6075,0 1.1905,-0.2414 1.6187,-0.6697 0.4301,-0.4301 0.6716,-1.013 0.6716,-1.6205l0 -38.9292c0,-0.6055 -0.2415,-1.1903 -0.6716,-1.6186 -0.4282,-0.4301 -1.0112,-0.6697 -1.6187,-0.6697 -12.4908,0 -47.0469,0 -59.5359,0 -0.6074,0 -1.1904,0.2396 -1.6205,0.6697 -0.4282,0.4283 -0.6697,1.0131 -0.6697,1.6186l0 38.9292c0,0.6075 0.2415,1.1904 0.6697,1.6205 0.4301,0.4283 1.0131,0.6697 1.6205,0.6697zm56.3873 -36.0671c0,-1.264 -1.0245,-2.2884 -2.2885,-2.2884l-48.6618 0c-1.264,0 -2.2883,1.0244 -2.2883,2.2884l0 28.6246c0,1.264 1.0243,2.2904 2.2883,2.2904l48.6618 0c1.264,0 2.2885,-1.0264 2.2885,-2.2904l0 -28.6246zm76.2565 29.7359l-23.9084 0c-0.1508,0 -0.298,-0.0585 -0.4056,-0.1661 -0.1075,-0.1094 -0.1659,-0.2527 -0.1659,-0.4074 0,0 0,-1.6828 0,-1.6828 0,-0.1491 0.0584,-0.2982 0.1659,-0.4057 0.1076,-0.1037 0.2548,-0.166 0.4056,-0.166l23.9084 0c0.1527,0 0.298,0.0623 0.4056,0.166 0.1075,0.1075 0.1678,0.2566 0.1678,0.4057l0 1.6828c0,0.1547 -0.0603,0.298 -0.1678,0.4074 -0.1076,0.1076 -0.2529,0.1661 -0.4056,0.1661zm-80.8352 -27.4456l0 24.0441c0,0 -44.0812,0 -44.0812,0 0,0 0,-24.0441 0,-24.0441l44.0812 0zm0 0z"/>
    </g>
   </g>
   <path class="fil5" d="M5.3899 15.8458l199.22 0 0 51.9942c-1.744,-5.5551 -6.933,-9.585 -13.0635,-9.585l-0.2898 0 -0.2898 0c-0.9637,0 -1.9047,0.1003 -2.8125,0.2899l-5.107 0c-0.7631,-0.1601 -1.5257,-0.2526 -2.2817,-0.282 -0.9326,-0.1977 -1.8844,-0.2976 -2.8386,-0.2976l-0.9624 0c-0.5929,0 -1.1786,-0.1597 -1.7538,-0.3034l-0.6296 -0.1573c-0.9356,-0.2339 -1.8732,-0.3648 -2.8003,-0.4009l-0.1517 -0.0312 0 -0.0002c-0.815,-0.1631 -1.6293,-0.3352 -2.454,-0.4421 -0.3089,-0.1047 -0.6299,-0.2 -0.9681,-0.2847l-1.4398 -0.3597c-0.8563,-0.4281 -1.7062,-0.7661 -2.6308,-1.0188 -0.7366,-0.3976 -1.4949,-0.7208 -2.2661,-0.9719 -0.8608,-0.4964 -1.7639,-0.8915 -2.6922,-1.1854 0.2456,-0.4413 0.4647,-0.8935 0.6578,-1.354 0.0686,-0.0967 0.1357,-0.194 0.2015,-0.292 0.6607,-0.7896 1.2178,-1.6364 1.673,-2.5221l0.3233 -0.4069c5.5824,-4.3683 6.94,-12.3703 2.9431,-18.3661 -4.1935,-6.2909 -12.6938,-7.9915 -18.9845,-3.7977l-0.6867 0.4577c-0.8048,0.5191 -1.5674,1.1302 -2.272,1.835l-0.9647 0.9647c-0.876,0.8418 -1.6511,1.812 -2.2943,2.9013 -0.5756,0.7264 -1.1123,1.4448 -1.5849,2.2694 -0.2118,0.2696 -0.4145,0.5486 -0.6076,0.8371 -0.5591,0.6687 -1.0615,1.3997 -1.4959,2.1899l-1.8503 -0.2644c-1.3639,-0.2272 -2.6929,-0.4933 -4.0462,-0.7636 -0.2477,-0.0495 -0.4974,-0.0922 -0.7473,-0.128l-4.057 -0.5798c-0.4357,-0.0623 -0.8752,-0.1035 -1.3149,-0.1235l-6.3751 -0.2896c-0.2067,-0.0095 -0.4144,-0.0142 -0.6215,-0.0142l-6.3749 0c-1.3264,0 -2.6418,0.1927 -3.9055,0.5688 -0.1915,0.0393 -0.383,0.0821 -0.5743,0.1298 -0.405,0.1013 -0.8129,0.1979 -1.2176,0.3045 -1.3565,0.1933 -2.7054,0.5945 -4.0033,1.2191 -0.9718,0.2654 -1.9005,0.6358 -2.7735,1.0973 -2.5905,1.216 -4.7376,3.2198 -6.1331,5.7028 -0.6966,0.8893 -1.2854,1.8669 -1.7472,2.9132 -0.5634,1.0058 -1.0037,2.0895 -1.3003,3.2314 -0.4148,1.0122 -0.7122,2.0847 -0.8749,3.2011 -0.6523,1.5965 -1.0128,3.3435 -1.0128,5.1744l0 10.1423c0,0.7632 0.064,1.5249 0.1907,2.2765 -0.249,0.2235 -0.4887,0.4553 -0.7188,0.6946l-3.5758 3.5759c-0.5721,0.5721 -1.083,1.1832 -1.5329,1.8236 -0.1146,0.1168 -0.2262,0.2354 -0.3358,0.3549 -0.2546,0.2327 -0.4956,0.4756 -0.7392,0.7193 -1.1535,1.1534 -2.0574,2.4615 -2.7132,3.8574 -0.5138,0.9694 -0.9145,2.008 -1.1847,3.098 -0.1252,0.0616 -0.2494,0.1252 -0.373,0.1907 -0.1934,0.0911 -0.3853,0.1872 -0.5752,0.2878 -0.1948,0.0917 -0.3878,0.1883 -0.5791,0.2897 -1.3912,0.6549 -2.6953,1.5565 -3.8453,2.706 -0.2405,0.2404 -0.485,0.4812 -0.7218,0.7252 -2.5651,2.4881 -4.1597,5.9713 -4.1597,9.8268l0 0.2896c0,4.6889 2.358,8.8261 5.9522,11.2936 -2.7658,2.505 -4.5033,6.1244 -4.5033,10.1499 0,2.7111 0.7883,5.2382 2.1481,7.3644 -1.8874,2.3465 -3.0175,5.3277 -3.0175,8.5732 0,2.5896 0.7199,5.0107 1.9697,7.0757 -0.708,1.6527 -1.1003,3.473 -1.1003,5.3845l0 0.8694c0,4.1163 1.8173,7.8072 4.6929,10.3166 1.3277,5.7904 6.3271,10.1799 12.4171,10.5868 0.1722,0.038 0.3452,0.0727 0.5197,0.104 2.507,2.8815 6.1995,4.7048 10.3191,4.7084l78.7466 0.0724c4.6334,0.0043 8.7309,-2.2942 11.211,-5.8146 0.1752,-0.0569 0.3488,-0.1175 0.5207,-0.1816 0.8692,-0.2577 1.7026,-0.5993 2.4903,-1.0154 1.4577,-0.4892 2.8055,-1.2173 3.9979,-2.1371 1.0285,-0.1962 2.0486,-0.5141 3.0417,-0.96 0.9489,-0.2135 1.8888,-0.5309 2.8038,-0.9591 0.4837,-0.1625 0.9629,-0.3532 1.4356,-0.5736 0.7076,-0.2354 1.3996,-0.5303 2.0684,-0.8845 0.1975,-0.0928 0.3934,-0.1906 0.5872,-0.2935 0.6968,-0.3279 1.3715,-0.7177 2.0162,-1.1694l0 52.7923 -199.22 0 0 -199.22zm193.302 83.5573l-0.1137 -0.0233 0.0002 -0.0003c-1.3107,-0.2622 -2.5754,-0.5297 -3.9199,-0.554 -0.5266,-0.1112 -1.0594,-0.2102 -1.5874,-0.3156 -0.8682,-0.1734 -1.7336,-0.26 -2.5876,-0.2669l-0.3582 -0.0511 -0.4742 -0.1185c-1.0223,-0.2554 -2.047,-0.3888 -3.058,-0.409 -0.3248,-0.0542 -0.6399,-0.1042 -0.9525,-0.1471l0.2503 -0.3336c0.6071,-0.5122 1.1555,-1.088 1.7165,-1.649 0.5986,-0.5987 1.1298,-1.2393 1.5943,-1.912l-0.0559 0.0841c-0.7338,1.1015 1.8724,-1.8723 2.8082,-2.8084 0.5979,-0.5978 1.1283,-1.2375 1.5926,-1.9094l-0.0541 0.0812c0.3512,-0.3512 0.7031,-0.696 1.034,-1.0671 0.6813,-0.6014 1.2934,-1.2633 1.8326,-1.9732 0.5656,-0.4296 1.0911,-0.8984 1.5742,-1.4002l0.026 -0.026c0.8964,-0.6273 1.6991,-1.3496 2.4017,-2.1455 0.2497,-0.2225 0.4912,-0.4543 0.724,-0.6944 1.6095,-1.5636 2.8362,-3.5193 3.525,-5.7133l0 23.6717c-0.711,-0.0466 -1.4346,-0.0292 -2.1474,-0.0292 -0.9203,-0.1923 -1.8597,-0.2899 -2.8024,-0.2899l-0.9683 0z"/>
   <g>
    <g style="clip-path:url(#id2)">
     <polygon id="_307188352" class="fil3" points="107.051,4.9341 139.529,4.9341 139.529,37.3539 107.051,37.3539 "/>
    </g>
    <g style="clip-path:url(#id3)">
     <g>
      <path id="_3071877761" class="fil6" d="M107.067 21.0417c0,0.5277 0.0243,1.0537 0.0763,1.5782 0.052,0.5244 0.13,1.0455 0.2322,1.5634 0.1023,0.5179 0.2306,1.0294 0.3832,1.5327 0.1525,0.505 0.3295,1.0017 0.5309,1.4888 0.203,0.4871 0.4269,0.9644 0.6754,1.4288 0.2484,0.4659 0.5179,0.9173 0.8118,1.3557 0.2922,0.4384 0.6056,0.8621 0.9401,1.2696 0.3328,0.4075 0.6867,0.7988 1.0586,1.1723 0.3733,0.3717 0.7629,0.7256 1.1705,1.0601 0.4059,0.3362 0.828,0.6494 1.2664,0.9417 0.4384,0.2939 0.8898,0.565 1.3541,0.8135 0.4643,0.2483 0.9401,0.4741 1.4255,0.6753 0.487,0.203 0.9822,0.38 1.4872,0.5325 0.5033,0.1527 1.0131,0.2809 1.5294,0.3848 0.5163,0.1023 1.0375,0.1803 1.5619,0.2323 0.5244,0.0503 1.0489,0.0763 1.5764,0.0763 0.5261,0 1.0505,-0.026 1.5749,-0.0763 0.5244,-0.052 1.0457,-0.13 1.5619,-0.2323 0.5163,-0.1039 1.0261,-0.2321 1.5311,-0.3848 0.5033,-0.1525 0.9985,-0.3295 1.4856,-0.5325 0.4854,-0.2012 0.9611,-0.427 1.4255,-0.6753 0.4643,-0.2485 0.9156,-0.5196 1.354,-0.8135 0.4384,-0.2923 0.8606,-0.6055 1.2681,-0.9417 0.4059,-0.3345 0.7955,-0.6884 1.1689,-1.0601 0.3718,-0.3735 0.7258,-0.7648 1.0586,-1.1723 0.3345,-0.4075 0.6479,-0.8312 0.9401,-1.2696 0.2938,-0.4384 0.5634,-0.8898 0.8117,-1.3557 0.2485,-0.4644 0.4725,-0.9417 0.6755,-1.4288 0.2013,-0.4871 0.3783,-0.9838 0.5309,-1.4888 0.1526,-0.5033 0.2809,-1.0148 0.3831,-1.5327 0.1039,-0.5179 0.1803,-1.039 0.2322,-1.5634 0.052,-0.5245 0.0779,-1.0505 0.0779,-1.5782 0,-0.5276 -0.0259,-1.0537 -0.0779,-1.5797 -0.0519,-0.5244 -0.1283,-1.0457 -0.2322,-1.5636 -0.1022,-0.5163 -0.2305,-1.0277 -0.3831,-1.5326 -0.1526,-0.505 -0.3296,-1.0018 -0.5309,-1.4889 -0.203,-0.487 -0.427,-0.9628 -0.6755,-1.4287 -0.2483,-0.4644 -0.5179,-0.9174 -0.8117,-1.3557 -0.2922,-0.4384 -0.6056,-0.8622 -0.9401,-1.2697 -0.3328,-0.4074 -0.6868,-0.7988 -1.0586,-1.1705 -0.3734,-0.3735 -0.763,-0.7274 -1.1689,-1.0619 -0.4075,-0.3344 -0.8297,-0.6494 -1.2681,-0.9416 -0.4384,-0.2939 -0.8897,-0.5634 -1.354,-0.8134 -0.4644,-0.2485 -0.9401,-0.4725 -1.4255,-0.6755 -0.4871,-0.2013 -0.9823,-0.3783 -1.4856,-0.5325 -0.505,-0.1526 -1.0148,-0.2809 -1.5311,-0.3832 -0.5162,-0.1039 -1.0375,-0.1802 -1.5619,-0.2322 -0.5244,-0.052 -1.0488,-0.0779 -1.5749,-0.0779 -0.5275,0 -1.052,0.0259 -1.5764,0.0779 -0.5244,0.052 -1.0456,0.1283 -1.5619,0.2322 -0.5163,0.1023 -1.0261,0.2306 -1.5294,0.3832 -0.505,0.1542 -1.0002,0.3312 -1.4872,0.5325 -0.4854,0.203 -0.9612,0.427 -1.4255,0.6755 -0.4643,0.25 -0.9157,0.5195 -1.3541,0.8134 -0.4384,0.2922 -0.8605,0.6072 -1.2664,0.9416 -0.4076,0.3345 -0.7972,0.6884 -1.1705,1.0619 -0.3719,0.3717 -0.7258,0.7631 -1.0586,1.1705 -0.3345,0.4075 -0.6479,0.8313 -0.9401,1.2697 -0.2939,0.4383 -0.5634,0.8913 -0.8118,1.3557 -0.2485,0.4659 -0.4724,0.9417 -0.6754,1.4287 -0.2014,0.4871 -0.3784,0.9839 -0.5309,1.4889 -0.1526,0.5049 -0.2809,1.0163 -0.3832,1.5326 -0.1022,0.5179 -0.1802,1.0392 -0.2322,1.5636 -0.052,0.526 -0.0763,1.0521 -0.0763,1.5797zm0 0z"/>
     </g>
    </g>
    <path class="fil5" d="M139.529 4.9341l-32.478 0 0 32.4198 32.478 0 0 -32.4198zm0 0z"/>
    <g style="clip-path:url(#id4)">
     <polygon id="_307188280" class="fil3" points="124.566,37.7694 158.233,37.7694 158.233,176.385 124.566,176.385 "/>
    </g>
    <g style="clip-path:url(#id5)">
     <g>
      <path id="_3071878241" class="fil6" d="M148.105 102.112l-5.4617 23.4592 3.1124 41.2243c0.3718,4.9277 -3.3153,9.2253 -8.2332,9.5971 -0.2306,0.0179 -0.4578,0.026 -0.6836,0.026 -4.6272,0 -8.5432,-3.5752 -8.8988,-8.2738l-3.2163 -42.5947c-0.0682,-0.9077 0.0016,-1.8201 0.2095,-2.7065l3.2942 -14.1528c0.5682,-0.3329 1.0992,-0.7404 1.5732,-1.2275 27.1529,-28.0035 15.4468,-57.8499 14.9354,-59.1081 -1.1365,-2.7877 -3.8122,-4.5883 -6.8175,-4.5883 -0.9547,0 -1.8898,0.1834 -2.7796,0.5471 -3.7407,1.5311 -5.5558,5.8287 -4.0475,9.5841 0.2321,0.5877 3.8365,10.1133 0.4416,22.5418 -0.8508,-7.5935 -2.5181,-14.9873 -3.6693,-20.8761 -2.0506,-7.1259 0.6332,-15.6529 6.733,-17.1758 6.0999,-1.5246 14.9451,1.7957 18.5429,12.2775 4.8643,14.4402 5.9082,23.8407 4.0606,39.7437 -1.3962,7.1973 -4.9941,10.3617 -9.0953,11.7028zm0 0z"/>
     </g>
    </g>
    <path class="fil5" d="M158.233 37.7694l-33.6666 0 0 138.615 33.6666 0 0 -138.615zm0 0z"/>
    <path id="_307187848" class="fil6" d="M132.617 53.2812c-1.1755,-2.9224 0.2274,-6.2491 3.1416,-7.4408 2.9242,-1.1951 6.2622,0.2093 7.4556,3.1383 0.4935,1.2145 11.8294,30.0882 -14.5928,57.3385 -1.1203,1.156 -2.6107,1.7372 -4.1011,1.7372 -1.4353,0 -2.8738,-0.539 -3.9827,-1.6187 -2.2649,-2.2049 -2.3185,-5.8303 -0.1186,-8.0984 21.0287,-21.6895 12.5942,-44.0462 12.198,-45.0561zm0 0z"/>
   </g>
  </g>
 </g>
</svg>
