<?xml version="1.0" encoding="UTF-8" standalone="no"?>
<svg
   width="500"
   zoomAndPan="magnify"
   viewBox="0 0 375 374.999991"
   height="500"
   preserveAspectRatio="xMidYMid meet"
   version="1.0"
   id="svg35"
   sodipodi:docname="weight.svg"
   inkscape:version="1.2.1 (9c6d41e410, 2022-07-14)"
   xmlns:inkscape="http://www.inkscape.org/namespaces/inkscape"
   xmlns:sodipodi="http://sodipodi.sourceforge.net/DTD/sodipodi-0.dtd"
   xmlns="http://www.w3.org/2000/svg"
   xmlns:svg="http://www.w3.org/2000/svg">
  <sodipodi:namedview
     id="namedview37"
     pagecolor="#ffffff"
     bordercolor="#000000"
     borderopacity="0.25"
     inkscape:showpageshadow="2"
     inkscape:pageopacity="0.0"
     inkscape:pagecheckerboard="0"
     inkscape:deskcolor="#d1d1d1"
     showgrid="false"
     inkscape:zoom="0.56851385"
     inkscape:cx="265.60479"
     inkscape:cy="377.29951"
     inkscape:window-width="1920"
     inkscape:window-height="991"
     inkscape:window-x="-9"
     inkscape:window-y="-9"
     inkscape:window-maximized="1"
     inkscape:current-layer="svg35" />
  <defs
     id="defs5">
    <clipPath
       id="2082b7afd1">
      <path
         d="M 14 19 L 360 19 L 360 361.496094 L 14 361.496094 Z M 14 19 "
         clip-rule="nonzero"
         id="path2" />
    </clipPath>
  </defs>
  <path
     fill="#000000"
     d="M 84.8125 97.4375 L 60.261719 97.4375 C 59.597656 97.441406 58.9375 97.484375 58.28125 97.558594 C 57.621094 97.636719 56.96875 97.746094 56.324219 97.886719 C 55.675781 98.03125 55.039062 98.207031 54.410156 98.417969 C 53.78125 98.628906 53.167969 98.871094 52.5625 99.144531 C 51.960938 99.421875 51.375 99.726562 50.804688 100.0625 C 50.230469 100.398438 49.679688 100.761719 49.148438 101.15625 C 48.613281 101.550781 48.105469 101.972656 47.613281 102.417969 C 47.125 102.863281 46.664062 103.335938 46.222656 103.832031 C 45.78125 104.328125 45.371094 104.84375 44.984375 105.382812 C 44.601562 105.921875 44.242188 106.480469 43.917969 107.054688 C 43.589844 107.632812 43.292969 108.222656 43.027344 108.832031 C 42.761719 109.4375 42.53125 110.058594 42.328125 110.6875 C 42.128906 111.320312 41.960938 111.960938 41.828125 112.609375 C 41.695312 113.257812 41.59375 113.910156 41.53125 114.570312 C 41.464844 115.230469 41.433594 115.890625 41.4375 116.554688 C 41.441406 117.214844 41.480469 117.875 41.550781 118.535156 L 65.917969 319.554688 C 66.046875 320.6875 66.28125 321.800781 66.617188 322.894531 C 66.949219 323.984375 67.378906 325.039062 67.90625 326.050781 C 68.433594 327.0625 69.046875 328.023438 69.75 328.921875 C 70.449219 329.824219 71.226562 330.65625 72.078125 331.414062 C 72.929688 332.175781 73.84375 332.851562 74.820312 333.445312 C 75.796875 334.035156 76.816406 334.535156 77.882812 334.945312 C 78.949219 335.351562 80.046875 335.65625 81.167969 335.863281 C 82.292969 336.070312 83.421875 336.175781 84.566406 336.175781 L 137.125 336.175781 C 137.949219 336.175781 138.769531 336.132812 139.589844 336.050781 C 140.410156 335.972656 141.226562 335.847656 142.035156 335.6875 C 142.839844 335.527344 143.640625 335.324219 144.429688 335.085938 C 145.21875 334.847656 145.992188 334.570312 146.753906 334.253906 C 147.515625 333.9375 148.257812 333.585938 148.984375 333.195312 C 149.710938 332.808594 150.417969 332.382812 151.101562 331.925781 C 151.789062 331.46875 152.449219 330.976562 153.085938 330.453125 C 153.722656 329.933594 154.332031 329.378906 154.914062 328.796875 C 155.496094 328.214844 156.050781 327.605469 156.574219 326.964844 C 157.097656 326.328125 157.585938 325.667969 158.042969 324.984375 C 158.503906 324.296875 158.925781 323.59375 159.316406 322.867188 C 159.703125 322.140625 160.054688 321.394531 160.371094 320.632812 C 160.6875 319.871094 160.964844 319.097656 161.203125 318.308594 C 161.445312 317.519531 161.644531 316.722656 161.808594 315.914062 C 161.96875 315.105469 162.089844 314.292969 162.171875 313.472656 C 162.253906 312.652344 162.292969 311.832031 162.292969 311.007812 L 162.292969 233.894531 C 162.296875 233.078125 162.335938 232.261719 162.417969 231.449219 C 162.5 230.636719 162.617188 229.828125 162.777344 229.027344 C 162.941406 228.226562 163.140625 227.433594 163.375 226.652344 C 163.613281 225.871094 163.890625 225.101562 164.203125 224.347656 C 164.519531 223.59375 164.867188 222.855469 165.253906 222.132812 C 165.640625 221.414062 166.058594 220.714844 166.515625 220.035156 C 166.96875 219.355469 167.457031 218.699219 167.976562 218.070312 C 168.496094 217.4375 169.042969 216.835938 169.625 216.257812 C 170.203125 215.679688 170.808594 215.132812 171.441406 214.613281 C 172.070312 214.097656 172.726562 213.613281 173.410156 213.160156 C 174.089844 212.707031 174.789062 212.285156 175.511719 211.902344 C 176.230469 211.519531 176.96875 211.167969 177.726562 210.859375 C 178.480469 210.546875 179.25 210.273438 180.03125 210.035156 C 180.816406 209.800781 181.605469 209.601562 182.410156 209.445312 C 183.210938 209.285156 184.019531 209.167969 184.832031 209.089844 C 185.644531 209.007812 186.460938 208.96875 187.277344 208.972656 C 192.425781 209.058594 198.394531 212.09375 200.527344 205.289062 C 202.175781 197.519531 192.90625 196.59375 187.15625 196.632812 C 185.9375 196.636719 184.722656 196.699219 183.507812 196.820312 C 182.296875 196.941406 181.09375 197.121094 179.898438 197.363281 C 178.703125 197.601562 177.523438 197.898438 176.355469 198.253906 C 175.191406 198.609375 174.042969 199.023438 172.917969 199.492188 C 171.792969 199.960938 170.695312 200.480469 169.621094 201.058594 C 168.542969 201.632812 167.5 202.261719 166.488281 202.9375 C 165.476562 203.617188 164.5 204.34375 163.558594 205.117188 C 162.617188 205.890625 161.714844 206.710938 160.851562 207.574219 C 159.992188 208.433594 159.175781 209.335938 158.402344 210.28125 C 157.628906 211.222656 156.90625 212.203125 156.226562 213.214844 C 155.550781 214.230469 154.925781 215.273438 154.351562 216.347656 C 153.777344 217.425781 153.257812 218.523438 152.792969 219.652344 C 152.324219 220.777344 151.914062 221.925781 151.5625 223.089844 C 151.207031 224.257812 150.910156 225.4375 150.671875 226.632812 C 150.4375 227.828125 150.257812 229.035156 150.136719 230.246094 C 150.019531 231.460938 149.957031 232.675781 149.957031 233.894531 L 149.957031 311.007812 C 149.957031 311.847656 149.871094 312.683594 149.707031 313.507812 C 149.542969 314.335938 149.296875 315.136719 148.976562 315.914062 C 148.652344 316.691406 148.257812 317.429688 147.789062 318.132812 C 147.320312 318.832031 146.789062 319.480469 146.195312 320.074219 C 145.597656 320.671875 144.949219 321.203125 144.25 321.671875 C 143.550781 322.140625 142.8125 322.535156 142.035156 322.855469 C 141.253906 323.179688 140.453125 323.421875 139.628906 323.589844 C 138.800781 323.753906 137.96875 323.835938 137.125 323.839844 L 84.566406 323.839844 C 84.171875 323.835938 83.78125 323.800781 83.398438 323.726562 C 83.011719 323.65625 82.632812 323.546875 82.265625 323.40625 C 81.898438 323.265625 81.550781 323.09375 81.214844 322.886719 C 80.878906 322.683594 80.566406 322.449219 80.273438 322.1875 C 79.980469 321.925781 79.714844 321.636719 79.472656 321.328125 C 79.234375 321.015625 79.023438 320.683594 78.84375 320.335938 C 78.664062 319.984375 78.515625 319.625 78.402344 319.246094 C 78.289062 318.871094 78.210938 318.488281 78.167969 318.097656 L 53.804688 117.09375 C 53.753906 116.636719 53.75 116.179688 53.792969 115.722656 C 53.835938 115.265625 53.929688 114.816406 54.066406 114.378906 C 54.203125 113.9375 54.386719 113.519531 54.613281 113.121094 C 54.839844 112.71875 55.105469 112.347656 55.40625 112 C 55.710938 111.65625 56.046875 111.347656 56.417969 111.074219 C 56.785156 110.796875 57.179688 110.566406 57.597656 110.375 C 58.015625 110.183594 58.449219 110.035156 58.898438 109.933594 C 59.347656 109.832031 59.800781 109.78125 60.261719 109.773438 L 84.8125 109.773438 C 85.214844 109.769531 85.613281 109.726562 86.003906 109.640625 C 86.398438 109.558594 86.777344 109.4375 87.148438 109.28125 C 87.515625 109.125 87.867188 108.933594 88.199219 108.707031 C 88.53125 108.480469 88.839844 108.226562 89.121094 107.9375 C 89.402344 107.652344 89.65625 107.34375 89.875 107.007812 C 90.097656 106.671875 90.285156 106.320312 90.4375 105.949219 C 90.589844 105.574219 90.707031 105.191406 90.78125 104.800781 C 90.859375 104.40625 90.898438 104.007812 90.898438 103.605469 C 90.898438 103.203125 90.859375 102.804688 90.78125 102.414062 C 90.707031 102.019531 90.589844 101.636719 90.4375 101.265625 C 90.285156 100.890625 90.097656 100.539062 89.875 100.203125 C 89.65625 99.867188 89.402344 99.558594 89.121094 99.273438 C 88.839844 98.988281 88.53125 98.730469 88.199219 98.503906 C 87.867188 98.277344 87.515625 98.085938 87.148438 97.929688 C 86.777344 97.773438 86.398438 97.652344 86.003906 97.570312 C 85.613281 97.488281 85.214844 97.441406 84.8125 97.4375 Z M 84.8125 97.4375 "
     fill-opacity="1"
     fill-rule="nonzero"
     id="path9" />
  <path
     fill="#000000"
     d="M 237.308594 336.175781 L 289.804688 336.175781 C 290.945312 336.175781 292.078125 336.074219 293.199219 335.867188 C 294.320312 335.660156 295.417969 335.355469 296.480469 334.949219 C 297.546875 334.542969 298.570312 334.042969 299.542969 333.453125 C 300.519531 332.859375 301.433594 332.183594 302.285156 331.425781 C 303.136719 330.667969 303.914062 329.839844 304.617188 328.941406 C 305.316406 328.039062 305.929688 327.085938 306.457031 326.074219 C 306.984375 325.0625 307.417969 324.011719 307.753906 322.917969 C 308.085938 321.828125 308.320312 320.71875 308.453125 319.585938 L 332.890625 118.492188 C 332.960938 117.835938 332.996094 117.175781 333 116.511719 C 333.003906 115.851562 332.96875 115.191406 332.902344 114.535156 C 332.835938 113.875 332.734375 113.222656 332.601562 112.574219 C 332.464844 111.925781 332.296875 111.289062 332.097656 110.65625 C 331.894531 110.027344 331.660156 109.410156 331.394531 108.804688 C 331.128906 108.199219 330.832031 107.609375 330.503906 107.035156 C 330.179688 106.457031 329.820312 105.902344 329.4375 105.367188 C 329.050781 104.828125 328.636719 104.3125 328.199219 103.816406 C 327.757812 103.324219 327.292969 102.851562 326.804688 102.40625 C 326.316406 101.960938 325.808594 101.542969 325.273438 101.148438 C 324.742188 100.757812 324.191406 100.390625 323.621094 100.058594 C 323.050781 99.722656 322.464844 99.417969 321.863281 99.144531 C 321.257812 98.867188 320.644531 98.628906 320.015625 98.417969 C 319.390625 98.207031 318.753906 98.03125 318.109375 97.886719 C 317.460938 97.746094 316.808594 97.636719 316.152344 97.558594 C 315.496094 97.484375 314.835938 97.445312 314.175781 97.4375 L 289.621094 97.4375 C 289.21875 97.4375 288.816406 97.472656 288.417969 97.550781 C 288.019531 97.628906 287.632812 97.746094 287.257812 97.902344 C 286.882812 98.054688 286.523438 98.246094 286.1875 98.46875 C 285.847656 98.695312 285.535156 98.949219 285.25 99.238281 C 284.960938 99.523438 284.703125 99.835938 284.476562 100.171875 C 284.253906 100.511719 284.0625 100.867188 283.90625 101.242188 C 283.75 101.617188 283.632812 102.003906 283.554688 102.398438 C 283.472656 102.796875 283.433594 103.199219 283.433594 103.605469 C 283.433594 104.011719 283.472656 104.414062 283.554688 104.8125 C 283.632812 105.210938 283.75 105.597656 283.90625 105.972656 C 284.0625 106.347656 284.253906 106.703125 284.476562 107.039062 C 284.703125 107.375 284.960938 107.6875 285.25 107.976562 C 285.535156 108.261719 285.847656 108.515625 286.1875 108.742188 C 286.523438 108.964844 286.882812 109.15625 287.257812 109.3125 C 287.632812 109.464844 288.019531 109.582031 288.417969 109.660156 C 288.816406 109.738281 289.21875 109.777344 289.621094 109.773438 L 314.175781 109.773438 C 314.632812 109.78125 315.085938 109.832031 315.53125 109.933594 C 315.976562 110.035156 316.410156 110.179688 316.824219 110.371094 C 317.242188 110.558594 317.632812 110.792969 318.003906 111.0625 C 318.371094 111.335938 318.707031 111.640625 319.011719 111.984375 C 319.316406 112.328125 319.582031 112.695312 319.808594 113.09375 C 320.035156 113.492188 320.21875 113.910156 320.355469 114.34375 C 320.496094 114.78125 320.589844 115.226562 320.636719 115.679688 C 320.683594 116.136719 320.683594 116.589844 320.636719 117.046875 L 296.203125 318.121094 C 296.160156 318.511719 296.082031 318.894531 295.964844 319.269531 C 295.851562 319.644531 295.703125 320.003906 295.523438 320.351562 C 295.34375 320.703125 295.132812 321.03125 294.894531 321.339844 C 294.652344 321.652344 294.386719 321.9375 294.09375 322.199219 C 293.800781 322.457031 293.488281 322.691406 293.152344 322.894531 C 292.816406 323.101562 292.46875 323.273438 292.101562 323.414062 C 291.734375 323.550781 291.359375 323.660156 290.972656 323.730469 C 290.585938 323.800781 290.199219 323.835938 289.804688 323.839844 L 237.308594 323.839844 C 236.46875 323.835938 235.632812 323.753906 234.808594 323.589844 C 233.980469 323.425781 233.179688 323.179688 232.402344 322.855469 C 231.625 322.535156 230.886719 322.140625 230.183594 321.671875 C 229.484375 321.203125 228.835938 320.671875 228.242188 320.074219 C 227.644531 319.480469 227.113281 318.832031 226.644531 318.132812 C 226.179688 317.429688 225.78125 316.691406 225.460938 315.914062 C 225.136719 315.136719 224.894531 314.335938 224.726562 313.507812 C 224.5625 312.683594 224.480469 311.847656 224.480469 311.007812 L 224.480469 233.894531 C 224.222656 226.859375 221.621094 208.617188 211.164062 213.242188 C 210.8125 213.445312 210.484375 213.679688 210.179688 213.945312 C 209.875 214.210938 209.597656 214.503906 209.351562 214.828125 C 209.101562 215.148438 208.890625 215.488281 208.710938 215.851562 C 208.53125 216.214844 208.386719 216.59375 208.28125 216.984375 C 208.175781 217.375 208.109375 217.769531 208.082031 218.175781 C 208.054688 218.578125 208.066406 218.984375 208.121094 219.382812 C 208.171875 219.785156 208.261719 220.179688 208.390625 220.5625 C 208.519531 220.945312 208.6875 221.3125 208.886719 221.664062 C 211.058594 225.453125 212.144531 229.527344 212.140625 233.894531 L 212.140625 311.007812 C 212.140625 311.832031 212.183594 312.652344 212.265625 313.472656 C 212.347656 314.292969 212.46875 315.105469 212.628906 315.914062 C 212.789062 316.722656 212.992188 317.519531 213.230469 318.308594 C 213.46875 319.097656 213.746094 319.871094 214.0625 320.632812 C 214.378906 321.394531 214.730469 322.140625 215.121094 322.867188 C 215.507812 323.59375 215.933594 324.296875 216.390625 324.984375 C 216.847656 325.667969 217.339844 326.328125 217.863281 326.964844 C 218.386719 327.605469 218.9375 328.214844 219.519531 328.796875 C 220.101562 329.378906 220.714844 329.933594 221.351562 330.453125 C 221.988281 330.976562 222.648438 331.46875 223.332031 331.925781 C 224.019531 332.382812 224.722656 332.808594 225.449219 333.195312 C 226.175781 333.585938 226.921875 333.9375 227.683594 334.253906 C 228.445312 334.570312 229.21875 334.847656 230.007812 335.085938 C 230.796875 335.324219 231.59375 335.527344 232.402344 335.6875 C 233.210938 335.847656 234.023438 335.972656 234.84375 336.050781 C 235.664062 336.132812 236.484375 336.175781 237.308594 336.175781 Z M 237.308594 336.175781 "
     fill-opacity="1"
     fill-rule="nonzero"
     id="path11" />
  <path
     fill="#000000"
     d="M 116.210938 170.078125 L 88.277344 170.078125 C 87.875 170.085938 87.476562 170.128906 87.085938 170.210938 C 86.691406 170.296875 86.3125 170.414062 85.941406 170.574219 C 85.574219 170.730469 85.222656 170.921875 84.890625 171.148438 C 84.558594 171.375 84.253906 171.628906 83.972656 171.917969 C 83.691406 172.203125 83.4375 172.511719 83.21875 172.847656 C 82.996094 173.183594 82.808594 173.535156 82.65625 173.90625 C 82.503906 174.277344 82.390625 174.660156 82.3125 175.054688 C 82.234375 175.449219 82.195312 175.847656 82.195312 176.246094 C 82.195312 176.648438 82.234375 177.046875 82.3125 177.441406 C 82.390625 177.832031 82.503906 178.214844 82.65625 178.585938 C 82.808594 178.960938 82.996094 179.3125 83.21875 179.648438 C 83.4375 179.980469 83.691406 180.292969 83.972656 180.578125 C 84.253906 180.863281 84.558594 181.121094 84.890625 181.347656 C 85.222656 181.570312 85.574219 181.765625 85.941406 181.921875 C 86.3125 182.078125 86.691406 182.199219 87.085938 182.28125 C 87.476562 182.367188 87.875 182.410156 88.277344 182.417969 L 116.210938 182.417969 C 116.613281 182.410156 117.007812 182.367188 117.402344 182.28125 C 117.792969 182.199219 118.175781 182.078125 118.542969 181.921875 C 118.914062 181.765625 119.265625 181.570312 119.597656 181.347656 C 119.925781 181.121094 120.234375 180.863281 120.515625 180.578125 C 120.796875 180.292969 121.050781 179.980469 121.269531 179.648438 C 121.492188 179.3125 121.679688 178.960938 121.832031 178.585938 C 121.984375 178.214844 122.097656 177.832031 122.175781 177.441406 C 122.253906 177.046875 122.292969 176.648438 122.292969 176.246094 C 122.292969 175.847656 122.253906 175.449219 122.175781 175.054688 C 122.097656 174.660156 121.984375 174.277344 121.832031 173.90625 C 121.679688 173.535156 121.492188 173.183594 121.269531 172.847656 C 121.050781 172.511719 120.796875 172.203125 120.515625 171.917969 C 120.234375 171.628906 119.929688 171.375 119.597656 171.148438 C 119.265625 170.921875 118.914062 170.730469 118.546875 170.574219 C 118.175781 170.414062 117.796875 170.296875 117.402344 170.210938 C 117.011719 170.128906 116.613281 170.085938 116.210938 170.078125 Z M 116.210938 170.078125 "
     fill-opacity="1"
     fill-rule="nonzero"
     id="path13" />
  <path
     fill="#000000"
     d="M 124.957031 204.621094 L 92.453125 204.621094 C 92.054688 204.628906 91.65625 204.671875 91.265625 204.753906 C 90.871094 204.839844 90.492188 204.960938 90.121094 205.117188 C 89.753906 205.273438 89.402344 205.464844 89.070312 205.691406 C 88.738281 205.917969 88.433594 206.175781 88.148438 206.460938 C 87.867188 206.746094 87.617188 207.054688 87.394531 207.390625 C 87.175781 207.726562 86.988281 208.078125 86.835938 208.449219 C 86.683594 208.820312 86.566406 209.203125 86.492188 209.597656 C 86.414062 209.992188 86.375 210.390625 86.375 210.792969 C 86.375 211.191406 86.414062 211.589844 86.492188 211.984375 C 86.566406 212.378906 86.683594 212.761719 86.835938 213.132812 C 86.988281 213.503906 87.175781 213.855469 87.394531 214.191406 C 87.617188 214.527344 87.867188 214.835938 88.148438 215.121094 C 88.433594 215.40625 88.738281 215.664062 89.070312 215.890625 C 89.402344 216.117188 89.753906 216.308594 90.121094 216.464844 C 90.492188 216.621094 90.871094 216.742188 91.265625 216.828125 C 91.65625 216.910156 92.054688 216.953125 92.453125 216.960938 L 124.957031 216.960938 C 125.355469 216.953125 125.753906 216.910156 126.148438 216.828125 C 126.539062 216.742188 126.921875 216.621094 127.289062 216.464844 C 127.660156 216.308594 128.007812 216.117188 128.339844 215.890625 C 128.671875 215.664062 128.980469 215.40625 129.261719 215.121094 C 129.542969 214.835938 129.792969 214.527344 130.015625 214.191406 C 130.234375 213.855469 130.421875 213.503906 130.574219 213.132812 C 130.726562 212.761719 130.84375 212.378906 130.917969 211.984375 C 130.996094 211.589844 131.035156 211.191406 131.035156 210.792969 C 131.035156 210.390625 130.996094 209.992188 130.917969 209.597656 C 130.84375 209.203125 130.726562 208.820312 130.574219 208.449219 C 130.421875 208.078125 130.234375 207.726562 130.015625 207.390625 C 129.792969 207.054688 129.542969 206.746094 129.261719 206.460938 C 128.980469 206.175781 128.671875 205.917969 128.339844 205.691406 C 128.007812 205.464844 127.660156 205.273438 127.289062 205.117188 C 126.921875 204.960938 126.539062 204.839844 126.148438 204.753906 C 125.753906 204.671875 125.355469 204.628906 124.957031 204.621094 Z M 124.957031 204.621094 "
     fill-opacity="1"
     fill-rule="nonzero"
     id="path15" />
  <path
     fill="#000000"
     d="M 130.988281 245.339844 C 130.988281 244.9375 130.945312 244.535156 130.867188 244.136719 C 130.789062 243.738281 130.671875 243.355469 130.515625 242.980469 C 130.363281 242.605469 130.171875 242.25 129.949219 241.914062 C 129.722656 241.574219 129.464844 241.265625 129.179688 240.976562 C 128.894531 240.691406 128.582031 240.4375 128.246094 240.210938 C 127.910156 239.984375 127.554688 239.796875 127.179688 239.640625 C 126.804688 239.484375 126.417969 239.367188 126.019531 239.289062 C 125.625 239.210938 125.222656 239.171875 124.816406 239.171875 L 96.679688 239.171875 C 96.277344 239.171875 95.875 239.214844 95.480469 239.292969 C 95.082031 239.371094 94.699219 239.492188 94.324219 239.644531 C 93.953125 239.800781 93.597656 239.992188 93.261719 240.21875 C 92.925781 240.441406 92.613281 240.699219 92.328125 240.984375 C 92.042969 241.269531 91.789062 241.582031 91.566406 241.917969 C 91.339844 242.253906 91.152344 242.609375 90.996094 242.984375 C 90.84375 243.359375 90.726562 243.742188 90.648438 244.140625 C 90.566406 244.535156 90.527344 244.9375 90.527344 245.339844 C 90.527344 245.746094 90.566406 246.144531 90.648438 246.542969 C 90.726562 246.9375 90.84375 247.324219 90.996094 247.699219 C 91.152344 248.070312 91.339844 248.425781 91.566406 248.761719 C 91.789062 249.097656 92.042969 249.410156 92.328125 249.695312 C 92.613281 249.984375 92.925781 250.238281 93.261719 250.464844 C 93.597656 250.6875 93.953125 250.878906 94.324219 251.035156 C 94.699219 251.191406 95.082031 251.308594 95.480469 251.386719 C 95.875 251.46875 96.277344 251.507812 96.679688 251.507812 L 124.816406 251.507812 C 125.222656 251.507812 125.625 251.46875 126.019531 251.390625 C 126.417969 251.3125 126.804688 251.195312 127.179688 251.039062 C 127.550781 250.886719 127.910156 250.695312 128.246094 250.46875 C 128.582031 250.246094 128.894531 249.988281 129.179688 249.703125 C 129.464844 249.417969 129.722656 249.105469 129.945312 248.769531 C 130.171875 248.429688 130.363281 248.074219 130.515625 247.703125 C 130.671875 247.328125 130.789062 246.941406 130.867188 246.542969 C 130.945312 246.148438 130.988281 245.746094 130.988281 245.339844 Z M 130.988281 245.339844 "
     fill-opacity="1"
     fill-rule="nonzero"
     id="path17" />
  <path
     fill="#000000"
     d="M 103.007812 275.726562 C 102.609375 275.734375 102.210938 275.777344 101.816406 275.859375 C 101.425781 275.945312 101.042969 276.0625 100.675781 276.222656 C 100.304688 276.378906 99.957031 276.570312 99.625 276.796875 C 99.292969 277.023438 98.984375 277.277344 98.703125 277.566406 C 98.421875 277.851562 98.167969 278.160156 97.949219 278.496094 C 97.726562 278.832031 97.539062 279.183594 97.386719 279.554688 C 97.234375 279.925781 97.121094 280.308594 97.042969 280.703125 C 96.964844 281.097656 96.925781 281.496094 96.925781 281.898438 C 96.925781 282.296875 96.964844 282.695312 97.042969 283.089844 C 97.121094 283.484375 97.234375 283.867188 97.386719 284.238281 C 97.539062 284.609375 97.726562 284.960938 97.949219 285.296875 C 98.167969 285.632812 98.421875 285.941406 98.703125 286.226562 C 98.984375 286.515625 99.292969 286.769531 99.625 286.996094 C 99.957031 287.222656 100.304688 287.414062 100.675781 287.570312 C 101.042969 287.730469 101.425781 287.847656 101.816406 287.933594 C 102.210938 288.015625 102.609375 288.058594 103.007812 288.066406 L 118.488281 288.066406 C 118.890625 288.058594 119.285156 288.015625 119.679688 287.933594 C 120.070312 287.847656 120.453125 287.726562 120.820312 287.570312 C 121.191406 287.414062 121.542969 287.222656 121.875 286.996094 C 122.203125 286.769531 122.511719 286.511719 122.792969 286.226562 C 123.074219 285.941406 123.328125 285.632812 123.546875 285.296875 C 123.769531 284.960938 123.957031 284.609375 124.109375 284.238281 C 124.261719 283.867188 124.375 283.484375 124.453125 283.089844 C 124.53125 282.695312 124.570312 282.296875 124.570312 281.898438 C 124.570312 281.496094 124.53125 281.097656 124.453125 280.703125 C 124.375 280.308594 124.261719 279.925781 124.109375 279.554688 C 123.957031 279.183594 123.769531 278.832031 123.546875 278.496094 C 123.328125 278.160156 123.074219 277.851562 122.792969 277.566406 C 122.511719 277.28125 122.203125 277.023438 121.875 276.796875 C 121.542969 276.570312 121.191406 276.378906 120.820312 276.222656 C 120.453125 276.066406 120.070312 275.945312 119.679688 275.859375 C 119.285156 275.777344 118.890625 275.734375 118.488281 275.726562 Z M 103.007812 275.726562 "
     fill-opacity="1"
     fill-rule="nonzero"
     id="path19" />
  <path
     fill="#000000"
     d="M 252.023438 176.246094 C 252.023438 176.652344 252.0625 177.054688 252.140625 177.449219 C 252.21875 177.847656 252.335938 178.234375 252.492188 178.609375 C 252.644531 178.984375 252.835938 179.339844 253.0625 179.675781 C 253.285156 180.011719 253.542969 180.324219 253.828125 180.609375 C 254.113281 180.894531 254.425781 181.152344 254.761719 181.378906 C 255.101562 181.601562 255.457031 181.792969 255.828125 181.945312 C 256.203125 182.101562 256.589844 182.21875 256.988281 182.296875 C 257.382812 182.378906 257.785156 182.417969 258.191406 182.417969 L 286.125 182.417969 C 286.53125 182.417969 286.933594 182.378906 287.332031 182.300781 C 287.730469 182.222656 288.117188 182.105469 288.492188 181.953125 C 288.867188 181.796875 289.226562 181.609375 289.5625 181.382812 C 289.902344 181.160156 290.214844 180.902344 290.5 180.617188 C 290.789062 180.332031 291.046875 180.019531 291.273438 179.679688 C 291.496094 179.34375 291.6875 178.988281 291.84375 178.613281 C 292 178.238281 292.117188 177.851562 292.195312 177.453125 C 292.277344 177.054688 292.316406 176.652344 292.316406 176.246094 C 292.316406 175.839844 292.277344 175.441406 292.195312 175.042969 C 292.117188 174.644531 292 174.257812 291.84375 173.882812 C 291.6875 173.507812 291.496094 173.152344 291.273438 172.8125 C 291.046875 172.476562 290.789062 172.164062 290.5 171.878906 C 290.214844 171.589844 289.902344 171.335938 289.5625 171.109375 C 289.226562 170.886719 288.867188 170.695312 288.492188 170.542969 C 288.117188 170.386719 287.730469 170.269531 287.332031 170.195312 C 286.933594 170.117188 286.53125 170.078125 286.125 170.078125 L 258.191406 170.078125 C 257.785156 170.078125 257.382812 170.117188 256.988281 170.195312 C 256.589844 170.277344 256.203125 170.394531 255.828125 170.546875 C 255.457031 170.703125 255.101562 170.894531 254.761719 171.117188 C 254.425781 171.34375 254.113281 171.597656 253.828125 171.886719 C 253.542969 172.171875 253.285156 172.484375 253.0625 172.820312 C 252.835938 173.15625 252.644531 173.511719 252.492188 173.886719 C 252.335938 174.261719 252.21875 174.648438 252.140625 175.042969 C 252.0625 175.441406 252.023438 175.84375 252.023438 176.246094 Z M 252.023438 176.246094 "
     fill-opacity="1"
     fill-rule="nonzero"
     id="path21" />
  <path
     fill="#000000"
     d="M 288.117188 210.792969 C 288.117188 210.386719 288.078125 209.984375 288 209.585938 C 287.917969 209.191406 287.800781 208.804688 287.648438 208.429688 C 287.492188 208.054688 287.300781 207.699219 287.078125 207.363281 C 286.851562 207.027344 286.597656 206.714844 286.308594 206.429688 C 286.023438 206.140625 285.710938 205.886719 285.375 205.660156 C 285.039062 205.4375 284.683594 205.246094 284.308594 205.089844 C 283.933594 204.9375 283.546875 204.820312 283.152344 204.742188 C 282.753906 204.660156 282.351562 204.621094 281.949219 204.621094 L 249.445312 204.621094 C 249.042969 204.625 248.640625 204.664062 248.246094 204.742188 C 247.847656 204.824219 247.464844 204.941406 247.089844 205.097656 C 246.71875 205.253906 246.363281 205.441406 246.027344 205.667969 C 245.691406 205.894531 245.378906 206.148438 245.09375 206.433594 C 244.808594 206.722656 244.554688 207.03125 244.332031 207.367188 C 244.105469 207.707031 243.917969 208.0625 243.761719 208.433594 C 243.609375 208.808594 243.492188 209.191406 243.414062 209.589844 C 243.332031 209.984375 243.292969 210.386719 243.292969 210.792969 C 243.292969 211.195312 243.332031 211.597656 243.414062 211.992188 C 243.492188 212.390625 243.609375 212.773438 243.761719 213.148438 C 243.917969 213.523438 244.105469 213.875 244.332031 214.214844 C 244.554688 214.550781 244.808594 214.859375 245.09375 215.148438 C 245.378906 215.433594 245.691406 215.6875 246.027344 215.914062 C 246.363281 216.140625 246.71875 216.332031 247.089844 216.484375 C 247.464844 216.640625 247.847656 216.757812 248.246094 216.839844 C 248.640625 216.917969 249.042969 216.957031 249.445312 216.960938 L 281.949219 216.960938 C 282.351562 216.960938 282.753906 216.921875 283.152344 216.84375 C 283.546875 216.761719 283.933594 216.644531 284.308594 216.492188 C 284.683594 216.335938 285.039062 216.144531 285.375 215.921875 C 285.710938 215.695312 286.023438 215.441406 286.308594 215.152344 C 286.597656 214.867188 286.851562 214.554688 287.078125 214.21875 C 287.300781 213.882812 287.492188 213.527344 287.648438 213.152344 C 287.800781 212.777344 287.917969 212.390625 288 211.996094 C 288.078125 211.597656 288.117188 211.195312 288.117188 210.792969 Z M 288.117188 210.792969 "
     fill-opacity="1"
     fill-rule="nonzero"
     id="path23" />
  <path
     fill="#000000"
     d="M 283.890625 245.339844 C 283.890625 244.9375 283.851562 244.535156 283.773438 244.136719 C 283.695312 243.738281 283.578125 243.355469 283.421875 242.980469 C 283.265625 242.605469 283.078125 242.25 282.851562 241.914062 C 282.625 241.574219 282.371094 241.265625 282.085938 240.976562 C 281.796875 240.691406 281.484375 240.4375 281.148438 240.210938 C 280.8125 239.984375 280.457031 239.796875 280.082031 239.640625 C 279.707031 239.484375 279.324219 239.367188 278.925781 239.289062 C 278.527344 239.210938 278.125 239.171875 277.722656 239.171875 L 249.589844 239.171875 C 249.183594 239.171875 248.78125 239.210938 248.382812 239.289062 C 247.984375 239.367188 247.597656 239.480469 247.222656 239.636719 C 246.847656 239.789062 246.492188 239.980469 246.152344 240.207031 C 245.816406 240.429688 245.503906 240.6875 245.214844 240.972656 C 244.925781 241.257812 244.671875 241.570312 244.445312 241.90625 C 244.21875 242.246094 244.027344 242.601562 243.875 242.976562 C 243.71875 243.351562 243.601562 243.738281 243.519531 244.136719 C 243.441406 244.53125 243.402344 244.933594 243.402344 245.339844 C 243.402344 245.746094 243.441406 246.148438 243.519531 246.546875 C 243.601562 246.945312 243.71875 247.332031 243.875 247.707031 C 244.027344 248.082031 244.21875 248.4375 244.445312 248.773438 C 244.671875 249.109375 244.925781 249.421875 245.214844 249.707031 C 245.503906 249.996094 245.816406 250.25 246.152344 250.476562 C 246.492188 250.699219 246.847656 250.890625 247.222656 251.046875 C 247.597656 251.199219 247.984375 251.316406 248.382812 251.394531 C 248.78125 251.472656 249.183594 251.511719 249.589844 251.507812 L 277.722656 251.507812 C 278.128906 251.507812 278.527344 251.46875 278.925781 251.390625 C 279.324219 251.3125 279.707031 251.195312 280.082031 251.039062 C 280.457031 250.886719 280.8125 250.695312 281.148438 250.46875 C 281.484375 250.246094 281.796875 249.988281 282.085938 249.703125 C 282.371094 249.417969 282.625 249.105469 282.851562 248.769531 C 283.078125 248.429688 283.265625 248.074219 283.421875 247.703125 C 283.578125 247.328125 283.695312 246.941406 283.773438 246.542969 C 283.851562 246.148438 283.890625 245.746094 283.890625 245.339844 Z M 283.890625 245.339844 "
     fill-opacity="1"
     fill-rule="nonzero"
     id="path25" />
  <path
     fill="#000000"
     d="M 255.914062 275.726562 C 255.511719 275.734375 255.113281 275.777344 254.722656 275.859375 C 254.328125 275.945312 253.949219 276.0625 253.578125 276.222656 C 253.210938 276.378906 252.859375 276.570312 252.527344 276.796875 C 252.195312 277.023438 251.890625 277.277344 251.605469 277.566406 C 251.324219 277.851562 251.074219 278.160156 250.851562 278.496094 C 250.632812 278.832031 250.445312 279.183594 250.292969 279.554688 C 250.140625 279.925781 250.023438 280.308594 249.949219 280.703125 C 249.871094 281.097656 249.832031 281.496094 249.832031 281.898438 C 249.832031 282.296875 249.871094 282.695312 249.949219 283.089844 C 250.023438 283.484375 250.140625 283.867188 250.292969 284.238281 C 250.445312 284.609375 250.632812 284.960938 250.851562 285.296875 C 251.074219 285.632812 251.324219 285.941406 251.605469 286.226562 C 251.890625 286.515625 252.195312 286.769531 252.527344 286.996094 C 252.859375 287.222656 253.210938 287.414062 253.578125 287.570312 C 253.949219 287.730469 254.328125 287.847656 254.722656 287.933594 C 255.113281 288.015625 255.511719 288.058594 255.914062 288.066406 L 271.394531 288.066406 C 271.796875 288.058594 272.195312 288.015625 272.585938 287.933594 C 272.980469 287.847656 273.359375 287.726562 273.730469 287.570312 C 274.097656 287.414062 274.449219 287.222656 274.78125 286.996094 C 275.113281 286.769531 275.417969 286.511719 275.699219 286.226562 C 275.980469 285.941406 276.234375 285.632812 276.453125 285.296875 C 276.675781 284.960938 276.863281 284.609375 277.015625 284.238281 C 277.167969 283.867188 277.28125 283.484375 277.359375 283.089844 C 277.4375 282.695312 277.476562 282.296875 277.476562 281.898438 C 277.476562 281.496094 277.4375 281.097656 277.359375 280.703125 C 277.28125 280.308594 277.167969 279.925781 277.015625 279.554688 C 276.863281 279.183594 276.675781 278.832031 276.453125 278.496094 C 276.234375 278.160156 275.980469 277.851562 275.699219 277.566406 C 275.417969 277.28125 275.113281 277.023438 274.78125 276.796875 C 274.449219 276.570312 274.097656 276.378906 273.730469 276.222656 C 273.359375 276.066406 272.980469 275.945312 272.585938 275.859375 C 272.195312 275.777344 271.796875 275.734375 271.394531 275.726562 Z M 255.914062 275.726562 "
     fill-opacity="1"
     fill-rule="nonzero"
     id="path27" />
  <g
     clip-path="url(#2082b7afd1)"
     id="g31">
    <path
       fill="#000000"
       d="M 352.066406 82.761719 C 350.589844 81.09375 348.953125 79.597656 347.160156 78.277344 C 345.363281 76.953125 343.449219 75.835938 341.417969 74.921875 C 339.382812 74.003906 337.277344 73.3125 335.097656 72.84375 C 332.917969 72.375 330.714844 72.140625 328.484375 72.140625 L 313.246094 72.140625 C 313.507812 70.753906 313.652344 69.351562 313.679688 67.941406 C 313.703125 66.527344 313.613281 65.121094 313.402344 63.726562 C 313.191406 62.328125 312.867188 60.960938 312.425781 59.617188 C 311.984375 58.277344 311.4375 56.980469 310.777344 55.730469 C 310.121094 54.480469 309.363281 53.292969 308.503906 52.171875 C 307.644531 51.050781 306.699219 50.007812 305.667969 49.042969 C 304.636719 48.078125 303.527344 47.207031 302.347656 46.429688 C 301.167969 45.652344 299.933594 44.980469 298.640625 44.410156 L 292.164062 41.566406 C 285.558594 38.707031 278.855469 36.121094 272.042969 33.804688 C 265.230469 31.488281 258.335938 29.453125 251.363281 27.695312 C 244.386719 25.9375 237.347656 24.464844 230.253906 23.273438 C 223.160156 22.085938 216.027344 21.1875 208.859375 20.574219 C 201.691406 19.964844 194.507812 19.640625 187.316406 19.609375 C 180.121094 19.582031 172.9375 19.839844 165.765625 20.390625 C 158.589844 20.941406 151.453125 21.78125 144.347656 22.910156 C 137.242188 24.039062 130.195312 25.453125 123.203125 27.152344 C 122.8125 27.246094 122.4375 27.378906 122.074219 27.550781 C 121.710938 27.722656 121.367188 27.925781 121.042969 28.160156 C 120.71875 28.398438 120.421875 28.664062 120.148438 28.960938 C 119.875 29.253906 119.636719 29.574219 119.425781 29.917969 C 119.214844 30.257812 119.042969 30.617188 118.902344 30.996094 C 118.761719 31.371094 118.660156 31.757812 118.597656 32.152344 C 118.53125 32.550781 118.507812 32.949219 118.523438 33.351562 C 118.535156 33.75 118.585938 34.148438 118.679688 34.539062 C 118.769531 34.929688 118.898438 35.308594 119.0625 35.675781 C 119.226562 36.039062 119.425781 36.386719 119.660156 36.714844 C 119.894531 37.039062 120.15625 37.34375 120.445312 37.617188 C 120.738281 37.894531 121.054688 38.140625 121.394531 38.355469 C 121.734375 38.566406 122.089844 38.746094 122.464844 38.890625 C 122.839844 39.035156 123.222656 39.144531 123.621094 39.214844 C 124.015625 39.28125 124.414062 39.3125 124.8125 39.304688 C 125.214844 39.296875 125.613281 39.25 126.003906 39.164062 C 132.667969 37.511719 139.390625 36.132812 146.167969 35.03125 C 152.949219 33.925781 159.757812 33.105469 166.605469 32.5625 C 173.449219 32.019531 180.308594 31.757812 187.175781 31.777344 C 194.042969 31.796875 200.894531 32.097656 207.738281 32.675781 C 214.582031 33.257812 221.386719 34.121094 228.160156 35.261719 C 234.929688 36.402344 241.644531 37.816406 248.300781 39.507812 C 254.957031 41.199219 261.53125 43.160156 268.027344 45.390625 C 274.519531 47.621094 280.914062 50.113281 287.203125 52.867188 L 293.703125 55.71875 C 294.144531 55.917969 294.570312 56.140625 294.988281 56.386719 C 295.402344 56.632812 295.800781 56.902344 296.1875 57.195312 C 296.570312 57.484375 296.9375 57.796875 297.289062 58.128906 C 297.640625 58.460938 297.96875 58.8125 298.28125 59.179688 C 298.59375 59.550781 298.882812 59.933594 299.152344 60.335938 C 299.417969 60.738281 299.664062 61.152344 299.886719 61.582031 C 300.109375 62.011719 300.304688 62.449219 300.480469 62.902344 C 300.652344 63.351562 300.800781 63.808594 300.921875 64.277344 C 301.042969 64.746094 301.140625 65.21875 301.210938 65.695312 C 301.277344 66.171875 301.320312 66.652344 301.335938 67.136719 C 301.351562 67.617188 301.34375 68.097656 301.304688 68.582031 C 301.265625 69.0625 301.203125 69.539062 301.113281 70.015625 C 301.019531 70.488281 300.902344 70.957031 300.761719 71.417969 C 300.617188 71.878906 300.449219 72.328125 300.253906 72.773438 C 300.0625 73.214844 299.84375 73.644531 299.605469 74.0625 C 299.363281 74.480469 299.097656 74.882812 298.8125 75.273438 C 298.683594 75.507812 298.570312 75.75 298.472656 75.996094 C 298.375 76.246094 298.292969 76.5 298.226562 76.757812 C 298.164062 77.019531 298.113281 77.28125 298.082031 77.546875 C 298.050781 77.8125 298.039062 78.078125 298.042969 78.34375 C 298.042969 78.613281 298.066406 78.878906 298.101562 79.144531 C 298.140625 79.40625 298.195312 79.667969 298.265625 79.925781 C 298.335938 80.183594 298.425781 80.4375 298.527344 80.683594 C 298.632812 80.929688 298.75 81.167969 298.886719 81.398438 C 299.019531 81.628906 299.167969 81.851562 299.332031 82.0625 C 299.496094 82.273438 299.671875 82.472656 299.863281 82.664062 C 300.050781 82.851562 300.25 83.027344 300.460938 83.191406 C 300.675781 83.355469 300.894531 83.503906 301.128906 83.636719 C 301.359375 83.769531 301.597656 83.890625 301.84375 83.992188 C 302.089844 84.097656 302.339844 84.183594 302.597656 84.253906 C 302.855469 84.328125 303.117188 84.378906 303.382812 84.417969 C 303.648438 84.457031 303.914062 84.476562 304.179688 84.476562 L 328.484375 84.476562 C 329.160156 84.480469 329.828125 84.523438 330.5 84.597656 C 331.167969 84.671875 331.832031 84.78125 332.488281 84.925781 C 333.144531 85.070312 333.792969 85.246094 334.433594 85.457031 C 335.070312 85.671875 335.695312 85.917969 336.308594 86.195312 C 336.921875 86.472656 337.519531 86.78125 338.097656 87.121094 C 338.679688 87.460938 339.242188 87.832031 339.78125 88.230469 C 340.324219 88.632812 340.84375 89.058594 341.339844 89.511719 C 341.835938 89.964844 342.308594 90.445312 342.753906 90.949219 C 343.203125 91.453125 343.621094 91.976562 344.011719 92.523438 C 344.402344 93.074219 344.765625 93.640625 345.097656 94.222656 C 345.429688 94.808594 345.726562 95.410156 345.996094 96.027344 C 346.265625 96.644531 346.5 97.273438 346.703125 97.917969 C 346.90625 98.558594 347.074219 99.207031 347.210938 99.867188 C 347.34375 100.527344 347.441406 101.191406 347.507812 101.863281 C 347.570312 102.53125 347.601562 103.203125 347.59375 103.875 C 347.589844 104.550781 347.546875 105.21875 347.472656 105.890625 L 320.019531 332.285156 C 319.878906 333.433594 319.636719 334.5625 319.292969 335.671875 C 318.949219 336.777344 318.507812 337.84375 317.96875 338.871094 C 317.429688 339.894531 316.804688 340.867188 316.089844 341.777344 C 315.375 342.691406 314.585938 343.53125 313.71875 344.300781 C 312.851562 345.070312 311.921875 345.757812 310.929688 346.355469 C 309.9375 346.957031 308.902344 347.464844 307.820312 347.875 C 306.734375 348.289062 305.625 348.597656 304.484375 348.808594 C 303.34375 349.019531 302.195312 349.125 301.035156 349.128906 L 73.339844 349.128906 C 72.179688 349.125 71.03125 349.019531 69.890625 348.808594 C 68.75 348.597656 67.640625 348.289062 66.554688 347.875 C 65.472656 347.464844 64.4375 346.957031 63.445312 346.355469 C 62.453125 345.757812 61.523438 345.070312 60.65625 344.300781 C 59.789062 343.53125 59 342.691406 58.285156 341.777344 C 57.570312 340.867188 56.945312 339.894531 56.40625 338.871094 C 55.867188 337.84375 55.425781 336.777344 55.082031 335.671875 C 54.738281 334.5625 54.496094 333.433594 54.355469 332.285156 L 26.964844 105.875 C 26.882812 105.207031 26.835938 104.535156 26.828125 103.863281 C 26.816406 103.1875 26.84375 102.515625 26.90625 101.84375 C 26.964844 101.171875 27.0625 100.507812 27.195312 99.84375 C 27.324219 99.183594 27.492188 98.53125 27.691406 97.886719 C 27.894531 97.246094 28.128906 96.613281 28.394531 95.996094 C 28.664062 95.375 28.964844 94.773438 29.296875 94.1875 C 29.625 93.597656 29.988281 93.03125 30.378906 92.480469 C 30.773438 91.933594 31.191406 91.40625 31.636719 90.902344 C 32.085938 90.398438 32.558594 89.917969 33.058594 89.464844 C 33.554688 89.011719 34.074219 88.585938 34.621094 88.183594 C 35.164062 87.785156 35.726562 87.417969 36.308594 87.078125 C 36.890625 86.738281 37.488281 86.429688 38.105469 86.152344 C 38.71875 85.878906 39.347656 85.636719 39.988281 85.425781 C 40.628906 85.214844 41.277344 85.039062 41.9375 84.898438 C 42.597656 84.757812 43.261719 84.652344 43.933594 84.582031 C 44.601562 84.511719 45.277344 84.476562 45.949219 84.480469 L 70.253906 84.480469 C 70.867188 84.460938 71.460938 84.359375 72.042969 84.167969 C 72.625 83.980469 73.167969 83.714844 73.671875 83.367188 C 74.175781 83.023438 74.621094 82.613281 75.011719 82.140625 C 75.398438 81.667969 75.710938 81.152344 75.949219 80.589844 C 76.1875 80.027344 76.339844 79.441406 76.410156 78.832031 C 76.484375 78.226562 76.464844 77.621094 76.363281 77.019531 C 76.261719 76.417969 76.074219 75.839844 75.804688 75.292969 C 75.539062 74.742188 75.195312 74.242188 74.785156 73.792969 C 74.5625 73.402344 74.363281 73.003906 74.183594 72.59375 C 74.007812 72.183594 73.847656 71.765625 73.714844 71.339844 C 73.578125 70.914062 73.464844 70.480469 73.375 70.042969 C 73.285156 69.605469 73.21875 69.164062 73.171875 68.71875 C 73.128906 68.273438 73.109375 67.828125 73.109375 67.382812 C 73.113281 66.933594 73.140625 66.488281 73.1875 66.046875 C 73.238281 65.601562 73.308594 65.160156 73.402344 64.722656 C 73.5 64.285156 73.617188 63.855469 73.757812 63.429688 C 73.894531 63.007812 74.058594 62.589844 74.242188 62.183594 C 74.425781 61.773438 74.628906 61.378906 74.855469 60.992188 C 75.078125 60.605469 75.324219 60.230469 75.585938 59.871094 C 75.851562 59.507812 76.132812 59.164062 76.433594 58.832031 C 76.734375 58.5 77.050781 58.183594 77.382812 57.886719 C 77.714844 57.589844 78.0625 57.308594 78.425781 57.046875 C 78.785156 56.785156 79.160156 56.542969 79.550781 56.320312 C 79.9375 56.097656 80.335938 55.894531 80.742188 55.710938 L 102.769531 46.085938 C 103.132812 45.917969 103.480469 45.71875 103.804688 45.484375 C 104.132812 45.253906 104.433594 44.988281 104.707031 44.699219 C 104.984375 44.40625 105.226562 44.089844 105.441406 43.75 C 105.652344 43.410156 105.832031 43.050781 105.976562 42.679688 C 106.117188 42.304688 106.226562 41.917969 106.292969 41.523438 C 106.363281 41.128906 106.390625 40.730469 106.382812 40.328125 C 106.375 39.925781 106.324219 39.53125 106.238281 39.140625 C 106.152344 38.746094 106.027344 38.367188 105.867188 38 C 105.707031 37.632812 105.511719 37.285156 105.285156 36.953125 C 105.054688 36.625 104.796875 36.320312 104.507812 36.039062 C 104.21875 35.761719 103.90625 35.511719 103.570312 35.292969 C 103.234375 35.078125 102.878906 34.894531 102.507812 34.742188 C 102.132812 34.59375 101.75 34.484375 101.355469 34.410156 C 100.960938 34.335938 100.566406 34.300781 100.164062 34.304688 C 99.761719 34.304688 99.367188 34.347656 98.972656 34.429688 C 98.578125 34.511719 98.199219 34.628906 97.828125 34.785156 L 75.789062 44.417969 C 74.496094 44.988281 73.265625 45.664062 72.085938 46.445312 C 70.910156 47.222656 69.804688 48.09375 68.773438 49.058594 C 67.742188 50.023438 66.800781 51.066406 65.945312 52.1875 C 65.085938 53.308594 64.328125 54.492188 63.671875 55.742188 C 63.011719 56.992188 62.464844 58.285156 62.023438 59.628906 C 61.582031 60.96875 61.253906 62.335938 61.042969 63.730469 C 60.832031 65.128906 60.734375 66.53125 60.757812 67.941406 C 60.78125 69.351562 60.921875 70.753906 61.179688 72.140625 L 45.949219 72.140625 C 44.84375 72.148438 43.738281 72.210938 42.636719 72.335938 C 41.539062 72.457031 40.445312 72.640625 39.367188 72.875 C 38.285156 73.113281 37.21875 73.40625 36.167969 73.757812 C 35.117188 74.105469 34.085938 74.511719 33.078125 74.96875 C 32.070312 75.425781 31.089844 75.933594 30.136719 76.496094 C 29.179688 77.054688 28.257812 77.664062 27.367188 78.320312 C 26.476562 78.980469 25.621094 79.679688 24.804688 80.429688 C 23.988281 81.175781 23.210938 81.964844 22.476562 82.792969 C 21.742188 83.621094 21.054688 84.484375 20.410156 85.386719 C 19.765625 86.285156 19.171875 87.21875 18.625 88.179688 C 18.078125 89.144531 17.585938 90.132812 17.144531 91.148438 C 16.703125 92.164062 16.3125 93.199219 15.980469 94.253906 C 15.648438 95.3125 15.371094 96.382812 15.148438 97.464844 C 14.929688 98.550781 14.765625 99.644531 14.660156 100.746094 C 14.550781 101.847656 14.503906 102.953125 14.511719 104.0625 C 14.523438 105.167969 14.589844 106.269531 14.714844 107.371094 L 42.109375 333.765625 C 42.222656 334.710938 42.382812 335.648438 42.582031 336.578125 C 42.78125 337.507812 43.023438 338.425781 43.304688 339.335938 C 43.589844 340.242188 43.910156 341.136719 44.273438 342.015625 C 44.640625 342.894531 45.042969 343.753906 45.484375 344.597656 C 45.925781 345.441406 46.40625 346.261719 46.921875 347.058594 C 47.4375 347.859375 47.988281 348.632812 48.574219 349.382812 C 49.160156 350.132812 49.78125 350.851562 50.433594 351.546875 C 51.085938 352.238281 51.765625 352.898438 52.476562 353.53125 C 53.1875 354.164062 53.929688 354.761719 54.695312 355.324219 C 55.460938 355.890625 56.25 356.417969 57.0625 356.910156 C 57.875 357.402344 58.710938 357.859375 59.566406 358.277344 C 60.421875 358.691406 61.292969 359.070312 62.183594 359.410156 C 63.070312 359.746094 63.972656 360.042969 64.890625 360.300781 C 65.804688 360.558594 66.730469 360.769531 67.667969 360.945312 C 68.601562 361.117188 69.542969 361.246094 70.492188 361.332031 C 71.4375 361.421875 72.386719 361.464844 73.339844 361.464844 L 301.035156 361.464844 C 301.988281 361.464844 302.9375 361.421875 303.882812 361.332031 C 304.832031 361.246094 305.773438 361.117188 306.707031 360.945312 C 307.644531 360.769531 308.570312 360.558594 309.484375 360.300781 C 310.402344 360.042969 311.304688 359.746094 312.191406 359.410156 C 313.082031 359.070312 313.953125 358.691406 314.808594 358.277344 C 315.664062 357.859375 316.5 357.402344 317.3125 356.910156 C 318.125 356.417969 318.914062 355.890625 319.679688 355.324219 C 320.449219 354.761719 321.1875 354.164062 321.898438 353.53125 C 322.609375 352.898438 323.292969 352.238281 323.941406 351.546875 C 324.59375 350.851562 325.214844 350.132812 325.800781 349.382812 C 326.386719 348.632812 326.9375 347.859375 327.453125 347.058594 C 327.96875 346.261719 328.449219 345.441406 328.890625 344.597656 C 329.332031 343.753906 329.734375 342.894531 330.101562 342.015625 C 330.464844 341.136719 330.789062 340.242188 331.070312 339.335938 C 331.351562 338.425781 331.59375 337.507812 331.792969 336.578125 C 331.992188 335.648438 332.152344 334.710938 332.265625 333.765625 L 359.71875 107.382812 C 359.988281 105.175781 360.023438 102.96875 359.824219 100.753906 C 359.625 98.539062 359.195312 96.375 358.535156 94.25 C 357.878906 92.128906 357.003906 90.097656 355.914062 88.164062 C 354.820312 86.226562 353.539062 84.425781 352.066406 82.761719 Z M 352.066406 82.761719 "
       fill-opacity="1"
       fill-rule="nonzero"
       id="path29" />
  </g>
  <path
     fill="#000000"
     d="M 275.183594 61.882812 C 268.210938 59.066406 261.117188 56.59375 253.90625 54.460938 C 246.695312 52.328125 239.402344 50.542969 232.019531 49.109375 C 224.636719 47.679688 217.207031 46.601562 209.71875 45.882812 C 202.234375 45.160156 194.734375 44.800781 187.214844 44.800781 C 179.695312 44.800781 172.195312 45.160156 164.707031 45.882812 C 157.222656 46.601562 149.789062 47.679688 142.410156 49.109375 C 135.027344 50.542969 127.730469 52.328125 120.523438 54.460938 C 113.3125 56.59375 106.21875 59.066406 99.246094 61.882812 C 97.582031 62.554688 96.128906 63.542969 94.890625 64.847656 C 93.65625 66.148438 92.742188 67.652344 92.160156 69.351562 C 91.5625 71.074219 91.347656 72.839844 91.519531 74.652344 C 91.691406 76.46875 92.230469 78.164062 93.136719 79.742188 L 122.527344 130.8125 C 123.078125 131.761719 123.742188 132.625 124.515625 133.398438 C 125.292969 134.171875 126.15625 134.835938 127.105469 135.382812 C 128.054688 135.933594 129.058594 136.347656 130.121094 136.632812 C 131.179688 136.917969 132.257812 137.0625 133.355469 137.066406 L 241.074219 137.066406 C 242.171875 137.0625 243.253906 136.917969 244.3125 136.632812 C 245.371094 136.347656 246.378906 135.929688 247.328125 135.382812 C 248.277344 134.832031 249.140625 134.171875 249.917969 133.394531 C 250.695312 132.617188 251.355469 131.753906 251.90625 130.804688 L 281.296875 79.738281 C 281.515625 79.351562 281.714844 78.953125 281.890625 78.546875 C 282.070312 78.136719 282.226562 77.722656 282.359375 77.296875 C 282.492188 76.871094 282.601562 76.441406 282.691406 76.007812 C 282.777344 75.570312 282.84375 75.132812 282.882812 74.6875 C 282.925781 74.246094 282.941406 73.800781 282.9375 73.355469 C 282.929688 72.914062 282.902344 72.46875 282.851562 72.027344 C 282.796875 71.585938 282.722656 71.148438 282.621094 70.714844 C 282.523438 70.28125 282.402344 69.855469 282.257812 69.433594 C 282.113281 69.011719 281.949219 68.601562 281.761719 68.195312 C 281.574219 67.792969 281.363281 67.402344 281.136719 67.019531 C 280.90625 66.640625 280.65625 66.269531 280.390625 65.917969 C 280.121094 65.5625 279.835938 65.222656 279.53125 64.898438 C 279.226562 64.574219 278.90625 64.265625 278.570312 63.976562 C 278.234375 63.683594 277.882812 63.410156 277.515625 63.160156 C 277.152344 62.90625 276.773438 62.671875 276.382812 62.457031 C 275.992188 62.246094 275.59375 62.050781 275.183594 61.882812 Z M 187.214844 110.496094 C 188.285156 110.5 189.351562 110.589844 190.40625 110.761719 C 191.464844 110.933594 192.5 111.1875 193.519531 111.519531 C 194.535156 111.855469 195.519531 112.269531 196.472656 112.761719 C 197.425781 113.25 198.332031 113.816406 199.195312 114.449219 C 200.058594 115.082031 200.867188 115.78125 201.621094 116.542969 C 202.371094 117.304688 203.0625 118.121094 203.683594 118.992188 C 204.308594 119.863281 204.859375 120.777344 205.339844 121.734375 C 205.820312 122.691406 206.222656 123.679688 206.546875 124.703125 L 167.894531 124.675781 C 168.21875 123.65625 168.621094 122.667969 169.101562 121.710938 C 169.582031 120.753906 170.136719 119.84375 170.757812 118.972656 C 171.382812 118.105469 172.070312 117.289062 172.824219 116.53125 C 173.578125 115.769531 174.386719 115.074219 175.246094 114.441406 C 176.109375 113.808594 177.015625 113.246094 177.96875 112.757812 C 178.917969 112.265625 179.902344 111.855469 180.917969 111.519531 C 181.933594 111.183594 182.96875 110.929688 184.027344 110.761719 C 185.082031 110.589844 186.144531 110.5 187.214844 110.496094 Z M 241.074219 124.726562 L 219.320312 124.710938 C 219.105469 123.601562 218.832031 122.503906 218.503906 121.425781 C 218.175781 120.34375 217.792969 119.28125 217.351562 118.238281 C 216.914062 117.199219 216.421875 116.183594 215.875 115.191406 C 215.332031 114.199219 214.734375 113.242188 214.089844 112.3125 C 213.445312 111.382812 212.753906 110.492188 212.019531 109.632812 C 211.28125 108.777344 210.5 107.960938 209.679688 107.1875 C 208.855469 106.410156 207.996094 105.679688 207.097656 104.992188 C 206.199219 104.304688 205.265625 103.667969 204.300781 103.078125 C 203.335938 102.488281 202.34375 101.949219 201.324219 101.464844 C 200.304688 100.976562 199.261719 100.546875 198.195312 100.167969 C 197.128906 99.789062 196.046875 99.46875 194.949219 99.203125 C 193.851562 98.9375 192.742188 98.730469 191.621094 98.578125 C 190.5 98.429688 189.375 98.335938 188.246094 98.304688 C 187.113281 98.269531 185.984375 98.296875 184.859375 98.378906 C 183.730469 98.464844 182.609375 98.605469 181.5 98.808594 C 180.386719 99.007812 179.285156 99.265625 178.199219 99.582031 L 173.125 88.417969 C 172.953125 88.054688 172.746094 87.710938 172.507812 87.390625 C 172.269531 87.066406 172.003906 86.769531 171.707031 86.5 C 171.410156 86.226562 171.089844 85.988281 170.75 85.78125 C 170.40625 85.570312 170.046875 85.398438 169.667969 85.257812 C 169.292969 85.121094 168.90625 85.019531 168.507812 84.957031 C 168.113281 84.894531 167.714844 84.871094 167.3125 84.886719 C 166.910156 84.902344 166.515625 84.957031 166.125 85.046875 C 165.734375 85.140625 165.355469 85.269531 164.992188 85.4375 C 164.625 85.601562 164.277344 85.804688 163.953125 86.035156 C 163.625 86.269531 163.324219 86.535156 163.050781 86.824219 C 162.777344 87.117188 162.53125 87.433594 162.320312 87.773438 C 162.105469 88.113281 161.925781 88.472656 161.785156 88.847656 C 161.640625 89.222656 161.535156 89.605469 161.464844 90.003906 C 161.398438 90.398438 161.367188 90.796875 161.378906 91.199219 C 161.386719 91.597656 161.4375 91.996094 161.523438 92.386719 C 161.609375 92.78125 161.734375 93.160156 161.894531 93.527344 L 167.199219 105.1875 C 165.648438 106.378906 164.21875 107.703125 162.90625 109.15625 C 161.59375 110.609375 160.421875 112.164062 159.390625 113.828125 C 158.359375 115.492188 157.484375 117.234375 156.765625 119.054688 C 156.046875 120.875 155.496094 122.746094 155.117188 124.664062 L 133.21875 124.648438 L 103.847656 73.328125 C 111.875 70.125 120.058594 67.394531 128.398438 65.128906 C 130.222656 68.6875 131.847656 75.488281 136.960938 75.132812 C 137.21875 75.132812 137.476562 75.117188 137.734375 75.085938 C 137.988281 75.054688 138.242188 75.003906 138.492188 74.941406 C 138.742188 74.878906 138.984375 74.796875 139.226562 74.703125 C 139.464844 74.609375 139.699219 74.5 139.921875 74.375 C 140.148438 74.253906 140.367188 74.113281 140.574219 73.964844 C 140.785156 73.8125 140.984375 73.648438 141.171875 73.472656 C 141.359375 73.296875 141.535156 73.109375 141.703125 72.914062 C 141.867188 72.714844 142.019531 72.507812 142.15625 72.289062 C 142.296875 72.074219 142.421875 71.847656 142.53125 71.613281 C 142.640625 71.382812 142.738281 71.144531 142.820312 70.898438 C 142.898438 70.652344 142.964844 70.40625 143.015625 70.152344 C 143.0625 69.898438 143.097656 69.644531 143.113281 69.386719 C 143.132812 69.128906 143.132812 68.875 143.121094 68.617188 C 143.105469 68.359375 143.074219 68.101562 143.027344 67.851562 C 142.980469 67.597656 142.917969 67.347656 142.839844 67.101562 C 142.761719 66.855469 142.671875 66.617188 142.5625 66.382812 L 140.613281 62.152344 C 153.941406 59.292969 167.417969 57.671875 181.046875 57.292969 L 181.046875 64.863281 C 181.050781 65.265625 181.097656 65.660156 181.179688 66.054688 C 181.261719 66.445312 181.382812 66.828125 181.539062 67.195312 C 181.699219 67.566406 181.890625 67.917969 182.117188 68.246094 C 182.34375 68.578125 182.597656 68.886719 182.882812 69.167969 C 183.171875 69.449219 183.480469 69.703125 183.816406 69.921875 C 184.148438 70.144531 184.503906 70.332031 184.875 70.484375 C 185.246094 70.632812 185.628906 70.75 186.023438 70.828125 C 186.417969 70.90625 186.8125 70.945312 187.214844 70.945312 C 187.617188 70.945312 188.015625 70.90625 188.40625 70.828125 C 188.800781 70.75 189.183594 70.632812 189.554688 70.484375 C 189.925781 70.332031 190.28125 70.144531 190.613281 69.921875 C 190.949219 69.703125 191.261719 69.449219 191.546875 69.167969 C 191.832031 68.886719 192.085938 68.578125 192.3125 68.246094 C 192.539062 67.917969 192.730469 67.566406 192.890625 67.195312 C 193.046875 66.828125 193.167969 66.445312 193.25 66.054688 C 193.332031 65.660156 193.378906 65.265625 193.382812 64.863281 L 193.382812 57.292969 C 207.011719 57.671875 220.492188 59.292969 233.820312 62.152344 L 231.871094 66.386719 C 231.707031 66.753906 231.582031 67.132812 231.492188 67.523438 C 231.40625 67.917969 231.355469 68.3125 231.34375 68.714844 C 231.332031 69.113281 231.359375 69.511719 231.425781 69.910156 C 231.492188 70.304688 231.597656 70.691406 231.738281 71.066406 C 231.882812 71.441406 232.058594 71.800781 232.269531 72.140625 C 232.480469 72.480469 232.722656 72.800781 232.996094 73.09375 C 233.273438 73.386719 233.570312 73.652344 233.894531 73.886719 C 234.222656 74.121094 234.566406 74.320312 234.929688 74.488281 C 235.296875 74.65625 235.671875 74.789062 236.0625 74.882812 C 236.453125 74.976562 236.847656 75.03125 237.25 75.050781 C 237.652344 75.066406 238.050781 75.042969 238.445312 74.984375 C 238.84375 74.921875 239.230469 74.824219 239.609375 74.6875 C 239.984375 74.550781 240.347656 74.378906 240.691406 74.171875 C 241.035156 73.964844 241.355469 73.726562 241.652344 73.457031 C 241.949219 73.1875 242.21875 72.890625 242.457031 72.570312 C 242.695312 72.25 242.902344 71.90625 243.074219 71.542969 L 246.03125 65.128906 C 254.371094 67.390625 262.558594 70.125 270.585938 73.328125 C 271.003906 73.625 240.980469 124.472656 241.074219 124.726562 Z M 241.074219 124.726562 "
     fill-opacity="1"
     fill-rule="nonzero"
     id="path33" />
</svg>
